<svg xmlns="http://www.w3.org/2000/svg" xmlns:xlink="http://www.w3.org/1999/xlink" viewBox="0 0 1800 800"><defs><style>.cls-1{isolation:isolate;}.cls-2{fill:url(#linear-gradient);}.cls-3{fill:url(#linear-gradient-2);}.cls-4{fill:url(#linear-gradient-3);}.cls-5{fill:url(#linear-gradient-4);}.cls-6{fill:url(#linear-gradient-5);}.cls-7{fill:url(#linear-gradient-6);}.cls-8{fill:url(#linear-gradient-7);}.cls-9{fill:url(#linear-gradient-8);}.cls-10{fill:url(#linear-gradient-9);}.cls-11{fill:url(#linear-gradient-10);}.cls-12{fill:url(#linear-gradient-11);}.cls-13{fill:#fff;}.cls-14{fill:url(#linear-gradient-12);}.cls-15{fill:url(#linear-gradient-13);}.cls-16{fill:url(#linear-gradient-14);}.cls-17{fill:url(#linear-gradient-15);}.cls-18{fill:url(#linear-gradient-16);}.cls-19{fill:url(#linear-gradient-17);}.cls-20{fill:url(#linear-gradient-18);}.cls-21{fill:url(#linear-gradient-19);}.cls-22{fill:url(#linear-gradient-20);}.cls-23{fill:url(#linear-gradient-21);}.cls-24{fill:url(#linear-gradient-22);}.cls-25{fill:url(#linear-gradient-23);}.cls-26{fill:url(#linear-gradient-24);}.cls-27{fill:url(#linear-gradient-25);}.cls-28{fill:url(#linear-gradient-26);}.cls-29{fill:url(#linear-gradient-27);}.cls-30{fill:url(#linear-gradient-28);}.cls-31{fill:url(#linear-gradient-29);}.cls-32{fill:url(#linear-gradient-30);}.cls-33{fill:url(#linear-gradient-31);}.cls-34{fill:url(#linear-gradient-32);}.cls-35{fill:url(#linear-gradient-33);}.cls-36{fill:url(#linear-gradient-34);}.cls-37{fill:url(#linear-gradient-35);}.cls-38{fill:url(#linear-gradient-36);}.cls-39{fill:url(#linear-gradient-37);}.cls-40{fill:url(#linear-gradient-38);}.cls-41{fill:url(#linear-gradient-39);}.cls-42{fill:url(#linear-gradient-40);}.cls-43{fill:url(#linear-gradient-41);}.cls-44{fill:url(#linear-gradient-42);}.cls-45{fill:url(#linear-gradient-43);}.cls-46{fill:url(#linear-gradient-44);}.cls-47{fill:url(#linear-gradient-45);}.cls-110,.cls-116,.cls-120,.cls-122,.cls-123,.cls-124,.cls-125,.cls-127,.cls-128,.cls-131,.cls-133,.cls-145,.cls-48,.cls-78,.cls-82,.cls-84,.cls-85,.cls-86,.cls-87,.cls-89,.cls-90,.cls-91,.cls-92,.cls-93,.cls-94,.cls-98{mix-blend-mode:color-burn;}.cls-48{fill:url(#linear-gradient-46);}.cls-49{fill:url(#linear-gradient-47);}.cls-50{fill:url(#linear-gradient-48);}.cls-51{fill:url(#linear-gradient-49);}.cls-52{fill:url(#linear-gradient-50);}.cls-53{fill:url(#linear-gradient-51);}.cls-54{fill:url(#linear-gradient-52);}.cls-55{fill:url(#linear-gradient-53);}.cls-56,.cls-58{opacity:0.19;}.cls-104,.cls-106,.cls-108,.cls-115,.cls-56,.cls-58{mix-blend-mode:multiply;}.cls-56{fill:url(#linear-gradient-54);}.cls-57{fill:url(#linear-gradient-55);}.cls-58{fill:url(#linear-gradient-56);}.cls-59{fill:url(#linear-gradient-57);}.cls-60{fill:url(#linear-gradient-58);}.cls-61{fill:url(#linear-gradient-59);}.cls-62{fill:url(#linear-gradient-60);}.cls-63{fill:url(#linear-gradient-61);}.cls-64{fill:url(#linear-gradient-62);}.cls-65{fill:url(#linear-gradient-63);}.cls-66{fill:url(#linear-gradient-64);}.cls-67{fill:url(#linear-gradient-65);}.cls-68{fill:url(#linear-gradient-66);}.cls-69{fill:url(#linear-gradient-67);}.cls-70{fill:url(#linear-gradient-68);}.cls-71{fill:url(#linear-gradient-69);}.cls-72{fill:url(#linear-gradient-70);}.cls-73{fill:url(#linear-gradient-71);}.cls-74{fill:url(#linear-gradient-72);}.cls-75{fill:#69110d;}.cls-76{fill:#ce3b34;}.cls-77{fill:#db4337;}.cls-104,.cls-106,.cls-108,.cls-110,.cls-115,.cls-116,.cls-120,.cls-122,.cls-123,.cls-124,.cls-125,.cls-127,.cls-128,.cls-131,.cls-133,.cls-145,.cls-78,.cls-82,.cls-84,.cls-85,.cls-86,.cls-87,.cls-89,.cls-90,.cls-91,.cls-92,.cls-93,.cls-94,.cls-98{opacity:0.49;}.cls-78{fill:url(#linear-gradient-73);}.cls-79{fill:#f4b401;}.cls-80{fill:#ffb699;}.cls-81{fill:#f1dbd9;}.cls-82{fill:url(#linear-gradient-74);}.cls-83{fill:#e8d2d1;}.cls-84{fill:url(#linear-gradient-75);}.cls-85{fill:url(#linear-gradient-76);}.cls-86{fill:url(#linear-gradient-77);}.cls-87{fill:url(#linear-gradient-78);}.cls-88{fill:#f9ebea;}.cls-89{fill:url(#linear-gradient-79);}.cls-90{fill:url(#linear-gradient-80);}.cls-91{fill:url(#linear-gradient-81);}.cls-92{fill:url(#linear-gradient-82);}.cls-93{fill:url(#linear-gradient-83);}.cls-94{fill:url(#linear-gradient-84);}.cls-95{fill:#39ce9c;}.cls-96{fill:url(#linear-gradient-85);}.cls-97{fill:#70462a;}.cls-98{fill:url(#linear-gradient-86);}.cls-99{fill:url(#linear-gradient-87);}.cls-100{fill:url(#linear-gradient-88);}.cls-101{fill:url(#linear-gradient-89);}.cls-102{fill:url(#linear-gradient-90);}.cls-103{fill:url(#linear-gradient-91);}.cls-104{fill:url(#linear-gradient-92);}.cls-105{fill:#ff675f;}.cls-106{fill:url(#linear-gradient-93);}.cls-107{fill:#ffc639;}.cls-108{fill:url(#linear-gradient-94);}.cls-109{fill:#53e0ad;}.cls-110{fill:url(#linear-gradient-95);}.cls-111{fill:#1b1c37;}.cls-112{fill:#373a63;}.cls-113{fill:#f9a182;}.cls-114{fill:#2fc1a5;}.cls-115{fill:url(#linear-gradient-96);}.cls-116{fill:url(#linear-gradient-97);}.cls-117{fill:#efa389;}.cls-118{fill:#285eb5;}.cls-119{fill:#3d6fd3;}.cls-120{fill:url(#linear-gradient-98);}.cls-121{fill:#2d60b2;}.cls-122{fill:url(#linear-gradient-99);}.cls-123{fill:url(#linear-gradient-100);}.cls-124{fill:url(#linear-gradient-101);}.cls-125{fill:url(#linear-gradient-102);}.cls-126{fill:#593924;}.cls-127{fill:url(#linear-gradient-103);}.cls-128{fill:url(#linear-gradient-104);}.cls-129{fill:#7f5030;}.cls-130{fill:url(#linear-gradient-105);}.cls-131{fill:url(#linear-gradient-106);}.cls-132{fill:url(#linear-gradient-107);}.cls-133{fill:url(#linear-gradient-108);}.cls-134{fill:url(#linear-gradient-109);}.cls-135{fill:url(#linear-gradient-110);}.cls-136{fill:url(#linear-gradient-111);}.cls-137{fill:url(#linear-gradient-112);}.cls-138{fill:url(#linear-gradient-113);}.cls-139{fill:url(#linear-gradient-114);}.cls-140{fill:url(#linear-gradient-115);}.cls-141{fill:url(#linear-gradient-116);}.cls-142{fill:url(#linear-gradient-117);}.cls-143{fill:url(#linear-gradient-118);}.cls-144{fill:#ccdef2;}.cls-145{fill:url(#linear-gradient-119);}.cls-146{fill:#313566;}</style><linearGradient id="linear-gradient" x1="940.1" y1="649.28" x2="940.1" y2="-317.27" gradientUnits="userSpaceOnUse"><stop offset="0" stop-color="#fff"/><stop offset="0.79" stop-color="#d1d3d4"/></linearGradient><linearGradient id="linear-gradient-2" x1="458.97" y1="494.21" x2="429.59" y2="172.18" gradientUnits="userSpaceOnUse"><stop offset="0" stop-color="#fff"/><stop offset="0.71" stop-color="#d1d3d4"/></linearGradient><linearGradient id="linear-gradient-3" x1="460.3" y1="518.98" x2="295.54" y2="303.52" gradientUnits="userSpaceOnUse"><stop offset="0.07" stop-color="#fff"/><stop offset="0.79" stop-color="#d1d3d4"/></linearGradient><linearGradient id="linear-gradient-4" x1="1052.61" y1="582.42" x2="1052.61" y2="-237.23" gradientUnits="userSpaceOnUse"><stop offset="0" stop-color="#fff"/><stop offset="0.99" stop-color="#d1d3d4"/></linearGradient><linearGradient id="linear-gradient-5" x1="952.48" y1="606.36" x2="952.48" y2="321.93" gradientUnits="userSpaceOnUse"><stop offset="0.15" stop-color="#fff"/><stop offset="0.71" stop-color="#d1d3d4"/></linearGradient><linearGradient id="linear-gradient-6" x1="785.77" y1="688.53" x2="785.77" y2="342" gradientUnits="userSpaceOnUse"><stop offset="0.07" stop-color="#fff"/><stop offset="0.99" stop-color="#d1d3d4"/></linearGradient><linearGradient id="linear-gradient-7" x1="621.12" y1="694.39" x2="621.12" y2="547.35" gradientUnits="userSpaceOnUse"><stop offset="0" stop-color="#fff"/><stop offset="0.99" stop-color="#d1d3d4"/></linearGradient><linearGradient id="linear-gradient-8" x1="938.96" y1="744.53" x2="938.96" y2="513.48" gradientUnits="userSpaceOnUse"><stop offset="0.02" stop-color="#fff"/><stop offset="0.79" stop-color="#d1d3d4"/></linearGradient><linearGradient id="linear-gradient-9" x1="621.12" y1="597.62" x2="621.12" y2="442.99" xlink:href="#linear-gradient-7"/><linearGradient id="linear-gradient-10" x1="745.68" y1="707.9" x2="745.68" y2="509.06" xlink:href="#linear-gradient-3"/><linearGradient id="linear-gradient-11" x1="969.23" y1="249.48" x2="877.7" y2="482.53" gradientUnits="userSpaceOnUse"><stop offset="0.07" stop-color="#fff"/><stop offset="0.99" stop-color="#d1d3d4"/></linearGradient><linearGradient id="linear-gradient-12" x1="1169.82" y1="740.7" x2="1169.82" y2="273.57" gradientUnits="userSpaceOnUse"><stop offset="0.15" stop-color="#fff"/><stop offset="1" stop-color="#d1d3d4"/></linearGradient><linearGradient id="linear-gradient-13" x1="1145.14" y1="688.14" x2="1145.14" y2="532" xlink:href="#linear-gradient-3"/><linearGradient id="linear-gradient-14" x1="1091.58" y1="442.94" x2="636.45" y2="38.25" gradientUnits="userSpaceOnUse"><stop offset="0.07" stop-color="#fff"/><stop offset="0.92" stop-color="#d1d3d4"/></linearGradient><linearGradient id="linear-gradient-15" x1="1169.97" y1="356.73" x2="979.84" y2="0.78" xlink:href="#linear-gradient-14"/><linearGradient id="linear-gradient-16" x1="1046.79" y1="1040.83" x2="1046.79" y2="-449.8" xlink:href="#linear-gradient-14"/><linearGradient id="linear-gradient-17" x1="953.45" y1="352.39" x2="1059.95" y2="295.61" gradientUnits="userSpaceOnUse"><stop offset="0.12" stop-color="#fff"/><stop offset="0.92" stop-color="#d1d3d4"/></linearGradient><linearGradient id="linear-gradient-18" x1="1268.6" y1="523.85" x2="1184.95" y2="366.62" xlink:href="#linear-gradient-7"/><linearGradient id="linear-gradient-19" x1="1421.2" y1="625.92" x2="1292.88" y2="210.84" xlink:href="#linear-gradient-7"/><linearGradient id="linear-gradient-20" x1="1284.78" y1="700.3" x2="1284.78" y2="509.92" xlink:href="#linear-gradient-3"/><linearGradient id="linear-gradient-21" x1="1477.14" y1="720.58" x2="1477.14" y2="441.28" xlink:href="#linear-gradient-3"/><linearGradient id="linear-gradient-22" x1="1306.6" y1="744.56" x2="1306.6" y2="478.64" xlink:href="#linear-gradient-7"/><linearGradient id="linear-gradient-23" x1="1306.6" y1="562.61" x2="1306.6" y2="364.29" xlink:href="#linear-gradient-7"/><linearGradient id="linear-gradient-24" x1="597.95" y1="449.54" x2="597.95" y2="441.07" xlink:href="#linear-gradient-3"/><linearGradient id="linear-gradient-25" x1="399.14" y1="690.74" x2="888.39" y2="78" xlink:href="#linear-gradient-3"/><linearGradient id="linear-gradient-26" x1="203.72" y1="607.84" x2="996.87" y2="456.47" gradientUnits="userSpaceOnUse"><stop offset="0.18" stop-color="#fff"/><stop offset="0.71" stop-color="#d1d3d4"/></linearGradient><linearGradient id="linear-gradient-27" x1="415.95" y1="679.52" x2="698.35" y2="325.85" xlink:href="#linear-gradient-3"/><linearGradient id="linear-gradient-28" x1="463.05" y1="714.59" x2="463.05" y2="458.92" xlink:href="#linear-gradient-3"/><linearGradient id="linear-gradient-29" x1="463.05" y1="723.63" x2="463.05" y2="538.95" gradientUnits="userSpaceOnUse"><stop offset="0.07" stop-color="#fff"/><stop offset="0.95" stop-color="#d1d3d4"/></linearGradient><linearGradient id="linear-gradient-30" x1="455.93" y1="682.38" x2="455.93" y2="645.85" gradientUnits="userSpaceOnUse"><stop offset="0.07" stop-color="#fff"/><stop offset="0.32" stop-color="#eff0f0"/><stop offset="0.79" stop-color="#d1d3d4"/></linearGradient><linearGradient id="linear-gradient-31" x1="431.19" y1="693.26" x2="431.19" y2="651.31" xlink:href="#linear-gradient-3"/><linearGradient id="linear-gradient-32" x1="431.07" y1="694.6" x2="431.07" y2="673.1" xlink:href="#linear-gradient-3"/><linearGradient id="linear-gradient-33" x1="430.97" y1="695.24" x2="430.97" y2="683.78" xlink:href="#linear-gradient-3"/><linearGradient id="linear-gradient-34" x1="478.85" y1="698.77" x2="478.85" y2="630.82" xlink:href="#linear-gradient-3"/><linearGradient id="linear-gradient-35" x1="454.11" y1="693.26" x2="454.11" y2="651.31" xlink:href="#linear-gradient-3"/><linearGradient id="linear-gradient-36" x1="453.99" y1="694.6" x2="453.99" y2="673.1" xlink:href="#linear-gradient-3"/><linearGradient id="linear-gradient-37" x1="453.89" y1="695.24" x2="453.89" y2="683.78" xlink:href="#linear-gradient-3"/><linearGradient id="linear-gradient-38" x1="471.24" y1="684.08" x2="471.24" y2="626.01" gradientUnits="userSpaceOnUse"><stop offset="0.07" stop-color="#fff"/><stop offset="0.99" stop-color="#d1d3d4"/></linearGradient><linearGradient id="linear-gradient-39" x1="446.51" y1="673.41" x2="446.51" y2="642.46" xlink:href="#linear-gradient-3"/><linearGradient id="linear-gradient-40" x1="446.38" y1="683.58" x2="446.38" y2="651.26" xlink:href="#linear-gradient-3"/><linearGradient id="linear-gradient-41" x1="446.29" y1="681.68" x2="446.29" y2="669.13" xlink:href="#linear-gradient-3"/><linearGradient id="linear-gradient-42" x1="460.24" y1="894.37" x2="460.24" y2="179.16" xlink:href="#linear-gradient-11"/><linearGradient id="linear-gradient-43" x1="940.1" y1="145.14" x2="940.1" y2="58.87" xlink:href="#linear-gradient-3"/><linearGradient id="linear-gradient-44" x1="940.1" y1="259.22" x2="940.1" y2="-201.44" xlink:href="#linear-gradient-3"/><linearGradient id="linear-gradient-45" x1="942.56" y1="194.12" x2="942.56" y2="-68.47" xlink:href="#linear-gradient-3"/><linearGradient id="linear-gradient-46" x1="783.55" y1="432.8" x2="781.96" y2="455.77" gradientUnits="userSpaceOnUse"><stop offset="0.22" stop-color="#fff" stop-opacity="0"/><stop offset="1"/></linearGradient><linearGradient id="linear-gradient-47" x1="488.23" y1="382.91" x2="488.23" y2="242.33" xlink:href="#linear-gradient-2"/><linearGradient id="linear-gradient-48" x1="494.45" y1="398.45" x2="494.45" y2="151.19" xlink:href="#linear-gradient-2"/><linearGradient id="linear-gradient-49" x1="491.16" y1="328.28" x2="477.03" y2="315.01" xlink:href="#linear-gradient-2"/><linearGradient id="linear-gradient-50" x1="493.73" y1="335.21" x2="493.73" y2="302.28" gradientUnits="userSpaceOnUse"><stop offset="0" stop-color="#fff"/><stop offset="0.87" stop-color="#d1d3d4"/></linearGradient><linearGradient id="linear-gradient-51" x1="491.34" y1="316.34" x2="491.34" y2="292.69" xlink:href="#linear-gradient-2"/><linearGradient id="linear-gradient-52" x1="494.34" y1="315.21" x2="494.34" y2="284.55" xlink:href="#linear-gradient-2"/><linearGradient id="linear-gradient-53" x1="1238.64" y1="763.59" x2="1238.64" y2="499.98" xlink:href="#linear-gradient-14"/><linearGradient id="linear-gradient-54" x1="1238.34" y1="793.25" x2="1238.34" y2="355.93" gradientUnits="userSpaceOnUse"><stop offset="0" stop-color="#fff" stop-opacity="0"/><stop offset="1"/></linearGradient><linearGradient id="linear-gradient-55" x1="1383.48" y1="763.59" x2="1383.48" y2="499.98" xlink:href="#linear-gradient-14"/><linearGradient id="linear-gradient-56" x1="1383.17" y1="793.25" x2="1383.17" y2="355.93" xlink:href="#linear-gradient-54"/><linearGradient id="linear-gradient-57" x1="1164.16" y1="249.89" x2="1164.16" y2="110.04" xlink:href="#linear-gradient-4"/><linearGradient id="linear-gradient-58" x1="1046.79" y1="316.77" x2="1046.79" y2="90.49" xlink:href="#linear-gradient"/><linearGradient id="linear-gradient-59" x1="1046.79" y1="316.77" x2="1046.79" y2="171.94" xlink:href="#linear-gradient"/><linearGradient id="linear-gradient-60" x1="1100.55" y1="219.23" x2="846.27" y2="473.51" xlink:href="#linear-gradient"/><linearGradient id="linear-gradient-61" x1="466.89" y1="397.92" x2="466.89" y2="354.81" xlink:href="#linear-gradient-2"/><linearGradient id="linear-gradient-62" x1="535.65" y1="397.92" x2="535.65" y2="354.81" xlink:href="#linear-gradient-2"/><linearGradient id="linear-gradient-63" x1="501.27" y1="391.93" x2="501.27" y2="273.19" xlink:href="#linear-gradient-2"/><linearGradient id="linear-gradient-64" x1="406.87" y1="451.27" x2="406.87" y2="374.37" xlink:href="#linear-gradient-2"/><linearGradient id="linear-gradient-65" x1="475.62" y1="451.27" x2="475.62" y2="374.37" xlink:href="#linear-gradient-2"/><linearGradient id="linear-gradient-66" x1="444.4" y1="429.45" x2="444.4" y2="373.13" xlink:href="#linear-gradient-2"/><linearGradient id="linear-gradient-67" x1="526.35" y1="489.96" x2="526.35" y2="306.23" gradientUnits="userSpaceOnUse"><stop offset="0.01" stop-color="#fff"/><stop offset="0.79" stop-color="#d1d3d4"/></linearGradient><linearGradient id="linear-gradient-68" x1="526.35" y1="463.35" x2="526.35" y2="433.45" xlink:href="#linear-gradient-67"/><linearGradient id="linear-gradient-69" x1="526.35" y1="465.43" x2="526.35" y2="404.67" gradientUnits="userSpaceOnUse"><stop offset="0.09" stop-color="#fff"/><stop offset="0.98" stop-color="#d1d3d4"/></linearGradient><linearGradient id="linear-gradient-70" x1="494.45" y1="382.38" x2="494.45" y2="129.82" xlink:href="#linear-gradient-2"/><linearGradient id="linear-gradient-71" x1="432.43" y1="423.01" x2="424.17" y2="389.75" gradientUnits="userSpaceOnUse"><stop offset="0.01" stop-color="#fff"/><stop offset="0.79" stop-color="#d1d3d4"/></linearGradient><linearGradient id="linear-gradient-72" x1="440.33" y1="429.78" x2="440.33" y2="329.32" xlink:href="#linear-gradient-71"/><linearGradient id="linear-gradient-73" x1="719.05" y1="645.35" x2="658.81" y2="528.99" gradientUnits="userSpaceOnUse"><stop offset="0.02" stop-color="#fff" stop-opacity="0"/><stop offset="0.71"/></linearGradient><linearGradient id="linear-gradient-74" x1="994.01" y1="219.97" x2="890.65" y2="301.98" gradientTransform="translate(-209.58 7.06) rotate(8.42)" gradientUnits="userSpaceOnUse"><stop offset="0.02" stop-color="#fff" stop-opacity="0"/><stop offset="0.4"/></linearGradient><linearGradient id="linear-gradient-75" x1="689.48" y1="614.85" x2="627.06" y2="435.04" xlink:href="#linear-gradient-73"/><linearGradient id="linear-gradient-76" x1="709.11" y1="488.39" x2="649.89" y2="508.4" gradientUnits="userSpaceOnUse"><stop offset="0.02" stop-color="#fff" stop-opacity="0"/><stop offset="0.54"/></linearGradient><linearGradient id="linear-gradient-77" x1="702.17" y1="470.84" x2="594.47" y2="438.35" xlink:href="#linear-gradient-76"/><linearGradient id="linear-gradient-78" x1="-71.37" y1="626.14" x2="-100.46" y2="545.67" gradientTransform="matrix(0.93, -0.36, 0.36, 0.93, 507.27, -232.9)" xlink:href="#linear-gradient-76"/><linearGradient id="linear-gradient-79" x1="-110.89" y1="620.01" x2="-88.2" y2="610.23" gradientTransform="matrix(0.93, -0.36, 0.36, 0.93, 507.27, -232.9)" gradientUnits="userSpaceOnUse"><stop offset="0.12" stop-color="#fff" stop-opacity="0"/><stop offset="0.85"/></linearGradient><linearGradient id="linear-gradient-80" x1="-118.68" y1="584.16" x2="-18.68" y2="579.7" gradientTransform="matrix(0.93, -0.36, 0.36, 0.93, 507.27, -232.9)" xlink:href="#linear-gradient-76"/><linearGradient id="linear-gradient-81" x1="-83.02" y1="612.08" x2="-84.41" y2="595.29" gradientTransform="matrix(0.93, -0.36, 0.36, 0.93, 507.27, -232.9)" gradientUnits="userSpaceOnUse"><stop offset="0.21" stop-color="#fff" stop-opacity="0"/><stop offset="0.9"/></linearGradient><linearGradient id="linear-gradient-82" x1="-50.67" y1="621.44" x2="-50.51" y2="605.11" gradientTransform="matrix(0.93, -0.36, 0.36, 0.93, 507.27, -232.9)" xlink:href="#linear-gradient-76"/><linearGradient id="linear-gradient-83" x1="-102.05" y1="608.33" x2="-71.49" y2="600.43" gradientTransform="matrix(0.93, -0.36, 0.36, 0.93, 507.27, -232.9)" xlink:href="#linear-gradient-76"/><linearGradient id="linear-gradient-84" x1="634.62" y1="437.12" x2="802.97" y2="484.16" xlink:href="#linear-gradient-76"/><linearGradient id="linear-gradient-85" x1="302.73" y1="783.97" x2="302.73" y2="593.32" xlink:href="#linear-gradient-8"/><linearGradient id="linear-gradient-86" x1="300.22" y1="729.76" x2="300.22" y2="661.63" xlink:href="#linear-gradient-54"/><linearGradient id="linear-gradient-87" x1="302.73" y1="987.92" x2="302.73" y2="200.72" gradientUnits="userSpaceOnUse"><stop offset="0" stop-color="#abcf9c"/><stop offset="0.25" stop-color="#84bc93"/><stop offset="0.82" stop-color="#228b7d"/><stop offset="1" stop-color="#007a75"/></linearGradient><linearGradient id="linear-gradient-88" x1="302.73" y1="777.4" x2="302.73" y2="241.29" xlink:href="#linear-gradient-87"/><linearGradient id="linear-gradient-89" x1="302.73" y1="649.82" x2="302.73" y2="258.08" xlink:href="#linear-gradient-87"/><linearGradient id="linear-gradient-90" x1="302.73" y1="550.34" x2="302.73" y2="270.42" xlink:href="#linear-gradient-87"/><linearGradient id="linear-gradient-91" x1="302.73" y1="476.53" x2="302.73" y2="277.18" xlink:href="#linear-gradient-87"/><linearGradient id="linear-gradient-92" x1="545.08" y1="738.27" x2="545.08" y2="680.25" xlink:href="#linear-gradient-73"/><linearGradient id="linear-gradient-93" x1="457.14" y1="738.43" x2="457.14" y2="693.4" xlink:href="#linear-gradient-73"/><linearGradient id="linear-gradient-94" x1="499.49" y1="738.06" x2="499.49" y2="663.72" xlink:href="#linear-gradient-73"/><linearGradient id="linear-gradient-95" x1="979.42" y1="560.69" x2="1016.42" y2="440.19" gradientUnits="userSpaceOnUse"><stop offset="0.02" stop-color="#fff" stop-opacity="0"/><stop offset="0.69"/></linearGradient><linearGradient id="linear-gradient-96" x1="1049.02" y1="654.62" x2="853.02" y2="405.28" xlink:href="#linear-gradient-73"/><linearGradient id="linear-gradient-97" x1="1214.37" y1="751.66" x2="1172.7" y2="586.66" gradientUnits="userSpaceOnUse"><stop offset="0.02" stop-color="#fff" stop-opacity="0"/><stop offset="0.82"/></linearGradient><linearGradient id="linear-gradient-98" x1="1191.19" y1="592.34" x2="1068.2" y2="158.86" xlink:href="#linear-gradient-73"/><linearGradient id="linear-gradient-99" x1="1620.56" y1="705.16" x2="1541.56" y2="566.66" xlink:href="#linear-gradient-54"/><linearGradient id="linear-gradient-100" x1="1593.16" y1="613.04" x2="1565.66" y2="525.54" xlink:href="#linear-gradient-54"/><linearGradient id="linear-gradient-101" x1="1524.26" y1="734.02" x2="1524.26" y2="700.69" xlink:href="#linear-gradient-54"/><linearGradient id="linear-gradient-102" x1="1557.52" y1="734.02" x2="1557.52" y2="700.69" xlink:href="#linear-gradient-54"/><linearGradient id="linear-gradient-103" x1="1640.89" y1="734.02" x2="1640.89" y2="700.69" xlink:href="#linear-gradient-54"/><linearGradient id="linear-gradient-104" x1="1578.26" y1="734.02" x2="1578.26" y2="700.69" xlink:href="#linear-gradient-54"/><linearGradient id="linear-gradient-105" x1="1531.76" y1="624.72" x2="1525.23" y2="596.1" gradientUnits="userSpaceOnUse"><stop offset="0" stop-color="#ffd600"/><stop offset="0.48" stop-color="#ff9c38"/><stop offset="1" stop-color="#ff5147"/></linearGradient><linearGradient id="linear-gradient-106" x1="1589.55" y1="631.94" x2="1514.32" y2="581.29" xlink:href="#linear-gradient-54"/><linearGradient id="linear-gradient-107" x1="1531.76" y1="686.72" x2="1525.23" y2="658.1" xlink:href="#linear-gradient-105"/><linearGradient id="linear-gradient-108" x1="1589.55" y1="693.94" x2="1514.32" y2="643.29" xlink:href="#linear-gradient-54"/><linearGradient id="linear-gradient-109" x1="832.76" y1="-795.65" x2="913.92" y2="-504.39" gradientTransform="translate(510.05 686.15) rotate(24.43)" xlink:href="#linear-gradient-87"/><linearGradient id="linear-gradient-110" x1="826.63" y1="-790.62" x2="929.49" y2="-587.97" gradientTransform="translate(510.05 686.15) rotate(24.43)" xlink:href="#linear-gradient-87"/><linearGradient id="linear-gradient-111" x1="-3426.31" y1="-782.64" x2="-3542.32" y2="-633.75" gradientTransform="matrix(-0.91, -0.41, -0.41, 0.91, -1884.46, -401.68)" xlink:href="#linear-gradient-87"/><linearGradient id="linear-gradient-112" x1="-4241.38" y1="402.81" x2="-4194.9" y2="569.59" gradientTransform="matrix(-1, 0, 0, 1, -2630.04, 0)" xlink:href="#linear-gradient-87"/><linearGradient id="linear-gradient-113" x1="-4244.89" y1="405.69" x2="-4185.98" y2="521.73" gradientTransform="matrix(-1, 0, 0, 1, -2630.04, 0)" xlink:href="#linear-gradient-87"/><linearGradient id="linear-gradient-114" x1="1632.23" y1="410.25" x2="1565.8" y2="495.51" xlink:href="#linear-gradient-87"/><linearGradient id="linear-gradient-115" x1="1446.24" y1="84.41" x2="1503.41" y2="289.56" gradientTransform="matrix(0.99, 0.1, -0.1, 0.99, 115.87, 144.59)" xlink:href="#linear-gradient-87"/><linearGradient id="linear-gradient-116" x1="1441.92" y1="87.95" x2="1514.37" y2="230.69" gradientTransform="matrix(0.99, 0.1, -0.1, 0.99, 115.87, 144.59)" xlink:href="#linear-gradient-87"/><linearGradient id="linear-gradient-117" x1="-4050.57" y1="93.56" x2="-4132.29" y2="198.43" gradientTransform="matrix(-0.99, -0.1, -0.1, 0.99, -2499.79, -130.02)" xlink:href="#linear-gradient-87"/><linearGradient id="linear-gradient-118" x1="1575.99" y1="579.78" x2="1575.99" y2="334.11" gradientUnits="userSpaceOnUse"><stop offset="0" stop-color="#fff"/><stop offset="1" stop-color="#d1d3d4"/></linearGradient><linearGradient id="linear-gradient-119" x1="1099.5" y1="399.48" x2="1057.25" y2="331.98" xlink:href="#linear-gradient-73"/></defs><title>Santa claus spreading joy</title><g class="cls-1"><g id="Layer_1" data-name="Layer 1"><path class="cls-2" d="M940.1,45.18c-338.68,0-613.23,274.55-613.23,613.23H1553.34C1553.34,319.73,1278.78,45.18,940.1,45.18Z"/><path class="cls-3" d="M360.39,458H527.81V204.45A613.88,613.88,0,0,0,360.39,458Z"/><path class="cls-4" d="M360.39,458h38.77V369.36A609.76,609.76,0,0,0,360.39,458Z"/><path class="cls-5" d="M1052.61,157.68c-276.54,0-500.73,224.18-500.73,500.73H1553.34C1553.34,381.87,1329.15,157.68,1052.61,157.68Z"/><path class="cls-6" d="M839,544.94l90.94-50a82.82,82.82,0,0,1,75.41-2.27l36,17.07,24.55,72.52-5.47,138.91-185.61-19"/><path class="cls-7" d="M1019.66,540.88,925.6,590.59,833,575.76l-90.69-74.64a50,50,0,0,0-64.29.58l-14,11.95A20.52,20.52,0,0,1,635.73,512h0c-21.05-22.59-58.85-13.31-66.84,16.52a501.31,501.31,0,0,0-17,129.86h457.57Z"/><rect class="cls-8" x="619.06" y="594.95" width="4.12" height="126.6"/><path class="cls-9" d="M334.39,753.53H1545.81q2.54-16.06,4.24-32.39H683.13V702.28a8.24,8.24,0,0,0-8.24-8.24H548.43l-220.57-1.57A611.36,611.36,0,0,0,334.39,753.53Z"/><path class="cls-10" d="M717.14,592.92,632.39,564a34.93,34.93,0,0,0-22.54,0L525.1,592.92c-1.46.25-2.24.5-2.24.76,0,2,44,3.59,98.26,3.59s98.26-1.61,98.26-3.59C719.38,593.43,718.61,593.17,717.14,592.92Z"/><path class="cls-11" d="M798.55,684.66l-3.67-6.6a1.1,1.1,0,0,0,.35-1.44l-2.91-5.23a.78.78,0,0,0,.34-1.08l-2.22-4h0a.56.56,0,0,0,.36-.81l-4.35-7.82a.27.27,0,0,0-.48,0l-4.35,7.82a.56.56,0,0,0,.36.81h0l-2.22,4a.78.78,0,0,0,.34,1.08l-1.54,2.78-1.34-2.42a1.35,1.35,0,0,0,.58-1.86L774,663h0a1,1,0,0,0,.62-1.4l-7.49-13.47a.47.47,0,0,0-.82,0l-7.49,13.47a1,1,0,0,0,.62,1.4h0l-1.37,2.47-2.41-4.35a1.35,1.35,0,0,0,.58-1.86l-3.82-6.88h0a1,1,0,0,0,.62-1.4l-7.49-13.47a.47.47,0,0,0-.82,0L737.27,651a1,1,0,0,0,.62,1.4h0l-3.82,6.88a1.35,1.35,0,0,0,.58,1.86l-4.3,7.73-2-3.63h0a1,1,0,0,0,.63-1.4l-7.49-13.47a.47.47,0,0,0-.82,0l-7.49,13.47a1,1,0,0,0,.62,1.4h0l-2.92,5.25-1.53-2.76h0a.56.56,0,0,0,.36-.81l-4.35-7.82a.27.27,0,0,0-.48,0l-4.35,7.82a.56.56,0,0,0,.36.81h0l-2.22,4a.78.78,0,0,0,.34,1.08L696.13,678a1.1,1.1,0,0,0,.35,1.44l-3.67,6.6a1.5,1.5,0,0,0,1,2.19h0a50.44,50.44,0,0,0,10.12,1.28l-4.06,7.31a2.58,2.58,0,0,0,1.67,3.77h0a86.9,86.9,0,0,0,39.12,0h0a2.58,2.58,0,0,0,1.67-3.77l-4-7.11a86.9,86.9,0,0,0,9.73.22l-2.59,4.67a2.58,2.58,0,0,0,1.67,3.77h0a86.9,86.9,0,0,0,39.12,0h0a2.58,2.58,0,0,0,1.67-3.77l-3.62-6.52a50.43,50.43,0,0,0,13.24-1.26h0A1.5,1.5,0,0,0,798.55,684.66Z"/><path class="cls-12" d="M862.93,297.16c139.46,42.45,278.63,53.34,278.63,53.34-57.67-7.29-108.85-27.31-125.76-43.89s-38.63-7.2-46.83-17.26c-22-27-27.25-10.91-49.48-32.48C894.23,232.36,852,245.27,852,245.27S823.41,227.6,796.61,228a501.53,501.53,0,0,0-41.93,27.93C779.32,268.11,814.12,282.3,862.93,297.16Z"/><path class="cls-13" d="M920,364s20-10.45,35-.5c13.2,8.76,6.26,2.93,17.5,9.12,5.82,3.2,25.53.12,35.59,6.87s37.67,12,67.35,10.28c0,0-71,7.57-145.1-.71-26.17-2.92-45.11-6.84-58.67-10.68-6.6-1.87-5.94-11.44.85-12.4a37.82,37.82,0,0,0,11.63-3.34C898.25,355.6,920,364,920,364Z"/><path class="cls-13" d="M1199,379.54s49.74-.77,76.52-14.92,43.81-2.68,61-17.6,35.58-5.42,42.47,3,19.51-4.8,31.56,1.25S1449,350,1449,350,1373.26,401.73,1199,379.54Z"/><path class="cls-13" d="M1222.43,318.65s27.48-2.76,41.63-11.85,24.11-3.54,32.93-12.6,19.43-4.67,23.64-.32,10.57-3.57,17.52-.79,21.21-2.5,21.21-2.5S1319.9,322.74,1222.43,318.65Z"/><path class="cls-13" d="M1140.14,284.11s-52.69-7-72.39-21.54c0,0,15.1,2.06,22.32,0s20.22.6,23.67,6,8.91-1,13.08,4.4S1140.14,284.11,1140.14,284.11Z"/><path class="cls-13" d="M1178,291.69s32.83,4.12,47-1.52c0,0-9.42-1.15-13.44-3.53s-12.27-2.84-15.2-.12-5.2-2-8.57.58S1178,291.69,1178,291.69Z"/><path class="cls-13" d="M1120.38,380.37s32.83,4.12,47-1.52c0,0-9.42-1.15-13.44-3.53s-12.27-2.84-15.2-.12-5.2-2-8.57.58S1120.38,380.37,1120.38,380.37Z"/><path class="cls-13" d="M1074.58,273s-22.69-8.37-30-16.79c0,0,6.5,2.42,9.91,2.23s8.92,2.29,9.91,5,4.06.43,5.37,3.26S1074.58,273,1074.58,273Z"/><path class="cls-14" d="M1466.83,478.44l-89.34-81.72a24.78,24.78,0,0,0-32.47-.85l-59.09,48.64a29.49,29.49,0,0,1-24.91,6.07l-35.11-7.51a24.54,24.54,0,0,0-16.17,2.08L786.31,658.41h767a499.83,499.83,0,0,0-29.16-168.77,16.76,16.76,0,0,0-24.82-8.41h0A26.78,26.78,0,0,1,1466.83,478.44Z"/><path class="cls-15" d="M1186.66,669.9l-2.88-5.19a.86.86,0,0,0,.28-1.13l-2.28-4.11a.61.61,0,0,0,.26-.85l-1.74-3.13h0a.44.44,0,0,0,.28-.64l-3.41-6.14a.21.21,0,0,0-.37,0l-3.41,6.14a.44.44,0,0,0,.28.64h0l-1.74,3.13a.61.61,0,0,0,.26.85l-1.21,2.18-1.06-1.9a1.06,1.06,0,0,0,.46-1.46l-3-5.4h0a.75.75,0,0,0,.49-1.1L1162,641.21a.37.37,0,0,0-.64,0l-5.88,10.58a.75.75,0,0,0,.49,1.1h0l-1.08,1.94-1.9-3.41a1.06,1.06,0,0,0,.46-1.46l-3-5.4h0a.75.75,0,0,0,.49-1.1l-5.88-10.58a.37.37,0,0,0-.64,0l-5.88,10.58a.75.75,0,0,0,.49,1.1h0l-3,5.4a1.06,1.06,0,0,0,.46,1.46l-3.38,6.07-1.59-2.85h0a.75.75,0,0,0,.49-1.1L1126.14,643a.37.37,0,0,0-.64,0l-5.88,10.58a.75.75,0,0,0,.49,1.1h0l-2.29,4.12-1.2-2.17h0a.44.44,0,0,0,.28-.64l-3.41-6.14a.21.21,0,0,0-.37,0L1109.7,656a.44.44,0,0,0,.28.64h0l-1.74,3.13a.61.61,0,0,0,.26.85l-2.28,4.11a.86.86,0,0,0,.28,1.13l-2.88,5.19a1.18,1.18,0,0,0,.76,1.72h0a39.6,39.6,0,0,0,7.94,1l-3.19,5.74a2,2,0,0,0,1.31,3h0a68.24,68.24,0,0,0,30.72,0h0a2,2,0,0,0,1.31-3l-3.1-5.59a68.22,68.22,0,0,0,7.64.17l-2,3.67a2,2,0,0,0,1.32,3h0a68.24,68.24,0,0,0,30.72,0h0a2,2,0,0,0,1.31-3l-2.84-5.12a39.61,39.61,0,0,0,10.39-1h0A1.18,1.18,0,0,0,1186.66,669.9Z"/><path class="cls-16" d="M1060.45,721.14h59.37v-559a504.64,504.64,0,0,0-59.37-4.41Z"/><path class="cls-17" d="M1076.47,280.34l43.34-118.18a504.64,504.64,0,0,0-59.37-4.41v94.62Z"/><rect class="cls-18" x="1017.1" y="120.23" width="59.37" height="600.91"/><polygon class="cls-19" points="1017.11 351.07 1067.75 300.43 1017.11 285.83 1017.11 351.07"/><path class="cls-20" d="M1279.74,448.41a29.48,29.48,0,0,1-18.73,2.17l-35.11-7.51h0a7.07,7.07,0,0,0-8.54,6.92V454a27,27,0,0,1-7.92,19.12h0a27,27,0,0,0-7.92,19.12h0a7.31,7.31,0,0,0,11.69,5.86l66.53-49.73Z"/><path class="cls-21" d="M1540.66,658.41l12.56-10.46a501.62,501.62,0,0,0-12-99.66L1415.54,431.53h0l-38.06-34.81-.12-.11c-5.54-5-14.41-.87-14.41,6.59v38.09a40.26,40.26,0,0,1-11.79,28.47l-11,11a43.07,43.07,0,0,0,0,60.92h0a43.07,43.07,0,0,1,.8,60.09l-53.71,56.66Z"/><path class="cls-22" d="M1335.41,678.06l-3.51-6.32a1,1,0,0,0,.34-1.38l-2.78-5a.75.75,0,0,0,.32-1l-2.12-3.82h0a.53.53,0,0,0,.35-.78l-4.16-7.49a.26.26,0,0,0-.45,0l-4.16,7.49a.53.53,0,0,0,.35.78h0l-2.12,3.82a.75.75,0,0,0,.32,1l-1.48,2.66-1.29-2.31a1.29,1.29,0,0,0,.56-1.78l-3.66-6.58h0a.92.92,0,0,0,.6-1.34l-7.17-12.9a.45.45,0,0,0-.78,0l-7.17,12.9a.92.92,0,0,0,.6,1.34h0l-1.32,2.37-2.31-4.16a1.29,1.29,0,0,0,.56-1.78l-3.66-6.58h0a.92.92,0,0,0,.6-1.34l-7.17-12.9a.45.45,0,0,0-.78,0l-7.17,12.9a.92.92,0,0,0,.6,1.34h0l-3.66,6.58a1.29,1.29,0,0,0,.56,1.78l-4.12,7.41-1.93-3.48h0a.92.92,0,0,0,.6-1.34l-7.17-12.9a.45.45,0,0,0-.78,0l-7.17,12.9a.92.92,0,0,0,.6,1.34h0l-2.79,5-1.47-2.64h0a.53.53,0,0,0,.35-.78l-4.16-7.49a.26.26,0,0,0-.45,0l-4.16,7.49a.53.53,0,0,0,.35.78h0l-2.12,3.82a.75.75,0,0,0,.32,1l-2.78,5a1,1,0,0,0,.34,1.38l-3.51,6.32a1.43,1.43,0,0,0,.93,2.09h0a48.29,48.29,0,0,0,9.69,1.22l-3.89,7a2.47,2.47,0,0,0,1.6,3.61h0a83.2,83.2,0,0,0,37.46,0h0a2.47,2.47,0,0,0,1.6-3.61l-3.79-6.81a83.21,83.21,0,0,0,9.32.21l-2.48,4.47a2.47,2.47,0,0,0,1.6,3.61h0a83.21,83.21,0,0,0,37.46,0h0a2.47,2.47,0,0,0,1.6-3.61l-3.47-6.24a48.29,48.29,0,0,0,12.67-1.2h0A1.43,1.43,0,0,0,1335.41,678.06Z"/><path class="cls-23" d="M1551.4,687.94l-5.16-9.28a1.54,1.54,0,0,0,.49-2l-4.08-7.35a1.1,1.1,0,0,0,.47-1.52l-3.12-5.61h0a.78.78,0,0,0,.51-1.14l-6.11-11a.38.38,0,0,0-.67,0l-6.11,11a.78.78,0,0,0,.51,1.14h0l-3.12,5.61a1.1,1.1,0,0,0,.47,1.52l-2.17,3.9-1.89-3.4a1.89,1.89,0,0,0,.82-2.61l-5.37-9.66h0a1.35,1.35,0,0,0,.87-2l-10.52-18.93a.66.66,0,0,0-1.15,0l-10.52,18.93a1.35,1.35,0,0,0,.87,2h0l-1.93,3.47-3.39-6.1a1.89,1.89,0,0,0,.82-2.61l-5.37-9.66h0a1.35,1.35,0,0,0,.88-2L1477,621.72a.66.66,0,0,0-1.15,0l-10.52,18.93a1.35,1.35,0,0,0,.87,2h0l-5.37,9.66a1.89,1.89,0,0,0,.82,2.61l-6,10.86-2.84-5.1h0a1.35,1.35,0,0,0,.87-2l-10.52-18.93a.66.66,0,0,0-1.15,0l-10.52,18.93a1.35,1.35,0,0,0,.87,2h0l-4.1,7.38-2.15-3.88h0a.78.78,0,0,0,.51-1.14l-6.11-11a.38.38,0,0,0-.67,0l-6.11,11a.78.78,0,0,0,.51,1.14h0l-3.12,5.61a1.1,1.1,0,0,0,.47,1.52l-4.08,7.35a1.54,1.54,0,0,0,.49,2l-5.16,9.28a2.1,2.1,0,0,0,1.37,3.07h0a70.85,70.85,0,0,0,14.21,1.79l-5.7,10.26a3.62,3.62,0,0,0,2.35,5.29h0a122.07,122.07,0,0,0,55,0h0a3.62,3.62,0,0,0,2.35-5.29l-5.55-10a122,122,0,0,0,13.67.31l-3.64,6.56a3.62,3.62,0,0,0,2.35,5.29h0a122.07,122.07,0,0,0,55,0h0a3.62,3.62,0,0,0,2.35-5.29l-5.09-9.16A70.85,70.85,0,0,0,1550,691h0A2.1,2.1,0,0,0,1551.4,687.94Z"/><rect class="cls-24" x="1303.96" y="559.19" width="5.28" height="162.37"/><path class="cls-25" d="M1429.75,556.58l-108.7-37.06a44.8,44.8,0,0,0-28.91,0l-108.7,37.06c-1.88.32-2.87.64-2.87,1,0,2.54,56.42,4.6,126,4.6s126-2.06,126-4.6C1432.62,557.23,1431.63,556.9,1429.75,556.58Z"/><path class="cls-13" d="M1429.75,556.58,1329,522.23a42.86,42.86,0,0,0,11.17,19.43h0a42.87,42.87,0,0,1,11.37,20.2c47.4-.66,81.07-2.34,81.07-4.3C1432.62,557.23,1431.63,556.9,1429.75,556.58Z"/><path class="cls-26" d="M598.62,446.89s-.52,1.18-1.35,3.24l1.36-3.25Z"/><path class="cls-27" d="M588.95,658.41h-4.87V481.09h18.21a10.36,10.36,0,0,0,10.36-10.36V458s-251.89-1.09-252.26,0l-33.5,196.24c0,1.13,0,2.25,0,3.38q0,18.35,1.08,36.45H621.12v-3.46A32.17,32.17,0,0,0,588.95,658.41Z"/><path class="cls-28" d="M450.19,658.41,584.08,481.09H356.44l-3.92,1.26A613.26,613.26,0,0,0,326.87,658c0,.15,0,.31,0,.46Z"/><path class="cls-29" d="M533.25,694V574.63a71.51,71.51,0,0,0-71.3-71.3h0a71.51,71.51,0,0,0-71.3,71.3V694Z"/><path class="cls-30" d="M479.07,615.79c-13.14-15.84-16.26-24-16.26-24s-7.39,3.55-5.95,17.61a15.28,15.28,0,0,1-4.16,12.16A11.6,11.6,0,0,0,451.34,609s-6.74,6.07-10.25,12.78c-5.12,9.79-5.88,22.37-4.76,28.71h0A26.67,26.67,0,0,0,486.75,659h0S498.38,639.08,479.07,615.79Z"/><path class="cls-31" d="M470.43,639c-6.05-7.3-7.49-11.06-7.49-11.06s-3.4,1.63-2.74,8.11a7,7,0,0,1-1.91,5.6,5.34,5.34,0,0,0-.63-5.78,25.17,25.17,0,0,0-4.72,5.89A23.44,23.44,0,0,0,450.75,655h0A12.28,12.28,0,0,0,474,658.91h0S479.32,649.74,470.43,639Z"/><path class="cls-32" d="M481,694c1.4-5.61,0-10.92-3.83-13.16a8.09,8.09,0,0,0-4.57-1H434L430.36,694Z"/><path class="cls-33" d="M442.35,694c1.4-5.61,0-10.92-3.83-13.16-5.11-3-12.66.55-16.85,7.82a20.81,20.81,0,0,0-2.17,5.34Z"/><path class="cls-34" d="M437,694c.75-3,0-5.84-2-7-2.73-1.58-6.77.29-9,4.18a11.13,11.13,0,0,0-1.16,2.86Z"/><path class="cls-35" d="M432.9,694a2,2,0,0,0-.66-2.28c-.88-.51-2.19.09-2.91,1.35a3.59,3.59,0,0,0-.37.92Z"/><path class="cls-36" d="M503.87,694c1.4-5.61,0-10.92-3.83-13.16a8.09,8.09,0,0,0-4.57-1h-38.6L453.28,694Z"/><path class="cls-37" d="M465.27,694c1.4-5.61,0-10.92-3.83-13.16-5.11-3-12.66.55-16.85,7.82a20.81,20.81,0,0,0-2.17,5.34Z"/><path class="cls-38" d="M460,694c.75-3,0-5.84-2-7-2.73-1.58-6.77.29-9,4.18a11.13,11.13,0,0,0-1.16,2.86Z"/><path class="cls-39" d="M455.82,694a2,2,0,0,0-.66-2.28c-.88-.51-2.19.09-2.91,1.35a3.59,3.59,0,0,0-.37.92Z"/><path class="cls-40" d="M496.27,679.84c1.4-5.61,0-10.92-3.83-13.16a8.09,8.09,0,0,0-4.57-1h-38.6l-3.59,14.19Z"/><path class="cls-41" d="M457.67,679.84c1.4-5.61,0-10.92-3.83-13.16-5.11-3-12.66.55-16.85,7.82a20.82,20.82,0,0,0-2.17,5.34Z"/><path class="cls-42" d="M452.35,679.84c.75-3,0-5.84-2-7-2.73-1.58-6.77.29-9,4.18a11.13,11.13,0,0,0-1.16,2.86Z"/><path class="cls-43" d="M448.22,679.84a2,2,0,0,0-.66-2.28c-.88-.51-2.19.1-2.91,1.35a3.59,3.59,0,0,0-.37.92Z"/><path class="cls-44" d="M462,503.33h0a71.51,71.51,0,0,0-71.3,71.3V694h28.25V609.18a56.26,56.26,0,0,1,16.48-39.78h0a56.26,56.26,0,0,1,39.78-16.48h54.67A71.57,71.57,0,0,0,462,503.33Z"/><path class="cls-45" d="M944,65.18v-20h-7.75v20A27.57,27.57,0,0,1,917,91.59a77.75,77.75,0,1,0,46.71.17A28,28,0,0,1,944,65.18Z"/><circle class="cls-46" cx="940.1" cy="165.85" r="77.75"/><path class="cls-47" d="M940.1,243.6a77.75,77.75,0,0,0,77.75-77.75c0-2.34-.12-4.66-.33-6.95a498.08,498.08,0,0,0-150.24,34.2A77.77,77.77,0,0,0,940.1,243.6Z"/><path class="cls-48" d="M774.83,437.19a68.68,68.68,0,0,0,2,14.13,16.73,16.73,0,0,1,12.37-7.45C797.92,442.86,775.72,445.36,774.83,437.19Z"/><path class="cls-49" d="M492.79,322.15l-.86-9.7h-7.39l-.86,9.7a5.27,5.27,0,0,1-5.25,4.8h-.12a3.78,3.78,0,0,0-3.78,3.78V363a2.91,2.91,0,0,0,2.91,2.91H499a2.91,2.91,0,0,0,2.91-2.91V330.74a3.78,3.78,0,0,0-3.78-3.78H498A5.27,5.27,0,0,1,492.79,322.15Z"/><path class="cls-50" d="M499,322.15l-.86-9.7h-7.39l-.86,9.7a5.27,5.27,0,0,1-5.25,4.8h-.12a3.78,3.78,0,0,0-3.78,3.78V363a2.91,2.91,0,0,0,2.91,2.91h21.58a2.91,2.91,0,0,0,2.91-2.91V330.74a3.78,3.78,0,0,0-3.78-3.78h-.12A5.27,5.27,0,0,1,499,322.15Z"/><path class="cls-51" d="M488.23,325.54h0v0Z"/><path class="cls-52" d="M489.9,322.15a5.24,5.24,0,0,1-.57,2l8.82-11.66h-7.39Z"/><rect class="cls-53" x="482.23" y="306.49" width="18.22" height="5.96" rx="1.38" ry="1.38"/><rect class="cls-54" x="488.23" y="306.49" width="12.22" height="5.96" rx="1.38" ry="1.38"/><path class="cls-55" d="M1216.39,721.75a33.45,33.45,0,0,1-22-8.23c-8.18-7.28-15.53-20.91-12.23-46.32,6.6-50.82,63.9-38.82,65.29-6.93s29.39,33.85,39.67,37.43c10,3.48,19,26.43-17,25.23C1243.87,722.05,1224.84,721.82,1216.39,721.75Z"/><path class="cls-56" d="M1276.73,705.48c-13.47-1.85-42.78-8.19-41.72-40.67.85-26.09-10.54-30.92-15.06-31.81-16.24-2.21-34.3,7-37.83,34.19-3.3,25.41,4.05,39,12.23,46.32a33.45,33.45,0,0,0,22,8.23c8.45.06,27.48.3,53.67,1.18,16.11.54,23.21-3.75,25.25-9h0C1295.93,707.93,1290.2,707.32,1276.73,705.48Z"/><path class="cls-57" d="M1361.23,721.75a33.45,33.45,0,0,1-22-8.23c-8.18-7.28-15.53-20.91-12.23-46.32,6.6-50.82,63.9-38.82,65.29-6.93s29.39,33.85,39.67,37.43c10,3.48,19,26.43-17,25.23C1388.71,722.05,1369.68,721.82,1361.23,721.75Z"/><path class="cls-58" d="M1421.57,705.48c-13.47-1.85-42.78-8.19-41.72-40.67.85-26.09-10.54-30.92-15.06-31.81-16.24-2.21-34.3,7-37.83,34.19-3.3,25.41,4.05,39,12.23,46.32a33.45,33.45,0,0,0,22,8.23c8.45.06,27.48.3,53.67,1.18,16.11.54,23.21-3.75,25.25-9h0C1440.77,707.93,1435,707.32,1421.57,705.48Z"/><circle class="cls-59" cx="1164.16" cy="218.25" r="17"/><circle class="cls-60" cx="1046.79" cy="272.99" r="34.53"/><circle class="cls-61" cx="1046.79" cy="272.99" r="25.61"/><path class="cls-62" d="M1046.79,247.38V273h25.61A25.61,25.61,0,0,0,1046.79,247.38Z"/><polygon class="cls-63" points="459.25 370.93 459.25 380.12 474.53 370.93 459.25 370.93"/><polygon class="cls-64" points="528.01 370.93 528.01 380.12 543.28 370.93 528.01 370.93"/><rect class="cls-65" x="431.2" y="364.58" width="140.14" height="6.34"/><polygon class="cls-66" points="399.23 424.49 399.23 433.69 414.5 424.49 399.23 424.49"/><polygon class="cls-67" points="467.98 424.49 467.98 433.69 483.25 424.49 467.98 424.49"/><rect class="cls-68" x="377.49" y="418.15" width="133.82" height="6.34"/><circle class="cls-69" cx="526.35" cy="425.92" r="27.98"/><polygon class="cls-70" points="548.18 457.49 504.53 457.49 509.5 448.38 543.2 448.38 548.18 457.49"/><path class="cls-71" d="M546.86,438l-1.42-2.56a.42.42,0,0,0,.14-.56l-1.13-2a.3.3,0,0,0,.13-.42l-.86-1.55h0a.22.22,0,0,0,.14-.32l-1.69-3a.11.11,0,0,0-.18,0l-1.69,3a.22.22,0,0,0,.14.32h0l-.86,1.55a.3.3,0,0,0,.13.42l-.6,1.08-.52-.94a.52.52,0,0,0,.23-.72l-1.48-2.67h0a.37.37,0,0,0,.24-.54l-2.9-5.23a.18.18,0,0,0-.32,0l-2.9,5.23a.37.37,0,0,0,.24.54h0l-.53,1-.94-1.69a.52.52,0,0,0,.23-.72L529,425.53h0a.37.37,0,0,0,.24-.54l-2.9-5.23a.18.18,0,0,0-.32,0l-2.9,5.23a.37.37,0,0,0,.24.54h0l-1.48,2.67a.52.52,0,0,0,.23.72l-1.67,3-.78-1.41h0a.37.37,0,0,0,.24-.54l-2.9-5.23a.18.18,0,0,0-.32,0l-2.9,5.23a.37.37,0,0,0,.24.54h0l-1.13,2-.59-1.07h0a.22.22,0,0,0,.14-.32l-1.69-3a.11.11,0,0,0-.18,0l-1.69,3a.22.22,0,0,0,.14.32h0l-.86,1.55a.3.3,0,0,0,.13.42l-1.13,2a.42.42,0,0,0,.14.56l-1.42,2.56a.58.58,0,0,0,.38.85h0a19.56,19.56,0,0,0,3.92.5l-1.57,2.83a1,1,0,0,0,.65,1.46h0a33.71,33.71,0,0,0,15.17,0h0a1,1,0,0,0,.65-1.46L523.51,440a33.69,33.69,0,0,0,3.77.08l-1,1.81a1,1,0,0,0,.65,1.46h0a33.71,33.71,0,0,0,15.17,0h0a1,1,0,0,0,.65-1.46l-1.4-2.53a19.57,19.57,0,0,0,5.13-.49h0A.58.58,0,0,0,546.86,438Z"/><rect class="cls-72" x="486.12" y="332.95" width="16.67" height="25.28" rx="2.25" ry="2.25"/><polyline class="cls-73" points="413.01 418.15 431.22 399.94 449.43 418.15"/><polyline class="cls-74" points="431.22 418.15 431.22 399.94 449.43 418.15"/><polyline class="cls-75" points="638.67 705.27 614.8 725.02 622.25 742.38 641.62 742.38 635.49 736.5 636.22 726.94 653.38 717.31"/><polyline class="cls-75" points="749.57 724.44 752.46 753.53 775.57 753.53 765.05 746.93 768.76 724.44"/><path class="cls-76" d="M656.83,712.07c98.49-38,132.09-114.52,132.09-114.52s-143.13,5.36-122.77,43.14c12,22.19-7.37,48.87-21.24,61"/><path class="cls-77" d="M628.23,570.93s-10,67.87,69.49,83.36c59.8,11.64,48.81,64.72,48.81,64.72h22.81s16.94-83-11.47-126.5"/><path class="cls-78" d="M683.34,650.64h0a27.83,27.83,0,0,1,18.54-26.24l61.43-21.75L628.56,589C631.16,608.16,642.15,637.5,683.34,650.64Z"/><path class="cls-79" d="M574.31,407.84l-11.79,8.83a87.16,87.16,0,0,0-34.94,69.78h0A50.85,50.85,0,0,0,570,536.59l63,10.62,12.12-49.93"/><path class="cls-80" d="M750.14,330.65l-.55-13.94a27.72,27.72,0,0,1,.25-4.93l.57-4a2.51,2.51,0,0,1,2.13-2.13h0a2.51,2.51,0,0,1,2.65,1.5l1.54,3.64,5.08-9.75a5.26,5.26,0,0,1,7.21-2.18l2.94,1.62a12.47,12.47,0,0,1,6.32,9.19h0a21.05,21.05,0,0,1-1.82,11.93l-6.22,13.14"/><path class="cls-81" d="M720.24,347.89,723,334.3a19.89,19.89,0,0,1,6.52-11.09l.32-.28a19.88,19.88,0,0,1,16.77-4.44h0A49.28,49.28,0,0,1,774,334.1h0a23.5,23.5,0,0,1,5.94,15l.07,2.64a19.88,19.88,0,0,1-2.12,9.45h0a19.88,19.88,0,0,1-6.12,7.18l-6.26,4.52"/><path class="cls-77" d="M669.12,380h0a91.16,91.16,0,0,0,55.39-42.2h0a15.9,15.9,0,0,1,18.54-7.15l2.92.93a38.59,38.59,0,0,1,17.75,11.81h0a24.71,24.71,0,0,1,1.81,29.56L753,392a91.16,91.16,0,0,1-64.05,40.26l-1.29.17"/><path class="cls-82" d="M721.32,357.29,723.73,341l-2.9,2.48A91.13,91.13,0,0,1,685.18,374L673,384.42,720.21,422a91.12,91.12,0,0,0,27.7-23.12l-11.07-7.2A35,35,0,0,1,721.32,357.29Z"/><path class="cls-77" d="M712.64,397s91.57,41.69,92.23,146.55v6.14c0,29.41-20.65,53.26-46.12,53.26H668.37c-21.7,0-37.36-24-31.38-48.08l8.19-33-9.56-122.69"/><path class="cls-83" d="M746.13,580.22h58.28a1.24,1.24,0,0,1,1.24,1.24v20.22a1.24,1.24,0,0,1-1.24,1.24H746.13a11.35,11.35,0,0,1-11.35-11.35v0a11.35,11.35,0,0,1,11.35-11.35Z" transform="translate(1540.43 1183.13) rotate(-180)"/><path class="cls-77" d="M705.61,383.45s89.24,55.21,89.89,160.07v6.14c0,29.41-20.65,53.26-46.12,53.26H659c-21.7,0-37.36-24-31.38-48.08h0A210,210,0,0,0,633.16,488l-6.92-88.8"/><path class="cls-83" d="M638.4,580.16c4.95,13.15,16.25,22.75,30,22.75h90.38c15.64,0,29.45-9,37.79-22.75Z"/><path class="cls-81" d="M795.51,543.51c-.39-62-36.11-102.55-65.24-125.34,24,26.8,50,68.87,50.35,125.34v6.14q0,.17,0,.34c-.09,16.76-12.13,30.17-26.65,30.17H629a40.43,40.43,0,0,0,2.13,4.72l.05.09q.56,1,1.18,2l.13.22A36.94,36.94,0,0,0,637,593l.26.27q.69.72,1.42,1.39l.32.3q.82.74,1.67,1.41l.09.08q.93.73,1.91,1.39l.25.16q.81.53,1.66,1l.54.3q.74.4,1.5.76l.57.27q.92.41,1.87.76l.21.08c.71.25,1.42.47,2.15.67l.59.15c.53.13,1.07.25,1.62.36l.76.13c.53.09,1.06.15,1.59.21l.71.07c.76.06,1.52.1,2.3.1h90.4c.9,0,1.79,0,2.68-.1l.83-.07c.62-.05,1.23-.12,1.84-.2l.91-.13q.9-.14,1.79-.32l.82-.17q1.09-.25,2.17-.55l.36-.1q1.29-.38,2.54-.84l.41-.16q1-.39,2-.83l.62-.28q.93-.43,1.85-.9l.55-.29q1.05-.57,2.08-1.19l.2-.12a45.56,45.56,0,0,0,4.56-3.22l.18-.15q1-.81,2-1.67l.23-.21q1-.92,2-1.9h0a51.19,51.19,0,0,0,5.57-6.8l0-.06q.83-1.21,1.6-2.48h0a58.81,58.81,0,0,0,8.33-30.51Z"/><path class="cls-84" d="M706,532.73v-9.91L635.4,516.6h0a32.5,32.5,0,0,1-.86,10.35l-6.92,27.89c-6,24.09,9.68,48.08,31.38,48.08h19.43l4-4.66C697.52,580.87,706,557.31,706,532.73Z"/><path class="cls-75" d="M636.26,523.53H804.64a4.63,4.63,0,0,1,4.63,4.63v2.73a4.63,4.63,0,0,1-4.63,4.63H632.09a2.71,2.71,0,0,1-2.71-2.71v-2.41a6.88,6.88,0,0,1,6.88-6.88Z"/><path class="cls-80" d="M717.74,489.36l-2.85-9.63a6,6,0,0,0-5.09-4.28l-5.44-.63a20.75,20.75,0,0,0-15.5,4.54l-7.51,6.13,9.34,21,4.33,1.25a13.89,13.89,0,0,0,12.34-2.34A15.19,15.19,0,0,0,709,504l6.89-7.09A7.68,7.68,0,0,0,717.74,489.36Z"/><path class="cls-85" d="M701,477.95h0a2.83,2.83,0,0,0-3.44-2.76,20.63,20.63,0,0,0-8.68,4.17l-5.53,4.51,3.84,9.83,11.31,14.6a13.88,13.88,0,0,0,8.88-2.87A15.24,15.24,0,0,0,709,504l6.77-7L704,485.28A10.38,10.38,0,0,1,701,477.95Z"/><path class="cls-86" d="M693.76,507.14a96.64,96.64,0,0,1,28.31-68.34l12.72-12.72h0l-43.53-21.71-58.73,10.06-4.28,7.15,8.34,92.63,57.19-7.08Z"/><path class="cls-81" d="M670.29,477.81h0a9.32,9.32,0,0,1,9.67-2.19l3.79,1.33a34.65,34.65,0,0,1,18.42,15.21h0a28.57,28.57,0,0,1,2.11,24.35h0a23.59,23.59,0,0,1-15,14.3l-4,1.26a24.42,24.42,0,0,1-17.11-.92l-1.12-.49a11.08,11.08,0,0,1-6.57-8.9h0"/><path class="cls-80" d="M684.38,361.07a9.09,9.09,0,0,0-1.51-12.6l-8.33-6.72a27.64,27.64,0,0,0-2.15-1.74l0,0h0a27.62,27.62,0,1,0,11.4,21.89Z"/><path class="cls-87" d="M672.17,339.87,629.8,354.08a27.29,27.29,0,0,0-.39,15.3,27.64,27.64,0,0,0,30.41,20.35l10.84-8.81L669,376.59a40.37,40.37,0,0,1,.66-30.89l2.55-5.81Z"/><path class="cls-88" d="M636.27,365l-7.82,4.37.19,3.84a12.89,12.89,0,0,0,8.46,11.47l6.94,2.53-.44-8.78A17.6,17.6,0,0,0,636.27,365Z"/><path class="cls-89" d="M640.3,369l-6.43-.61-1.15,1.36a3.9,3.9,0,0,0-.66,3.94h0a7,7,0,0,0,5.81,4.42h0a6.6,6.6,0,0,1,4.21,2.12l1.7,1.87-.18-3.7A17.59,17.59,0,0,0,640.3,369Z"/><path class="cls-77" d="M636.62,407.83l-1.33-20.63a2.89,2.89,0,0,1,3.26-3.05l47.38,6.18,24.95,26.73Z"/><path class="cls-88" d="M690.72,369.79l-7-7.9-8.16,4.74a12,12,0,0,0-5.51,8.13,5.15,5.15,0,0,1-4.52,4.07,5.34,5.34,0,0,1-5-2.59l-4.24-6.81a9.61,9.61,0,0,1-1.32-6.7,9.6,9.6,0,0,0-.74-5.62l-2.43-5.29-11,8.34,13.54,20.66a7.59,7.59,0,0,1,.92,5.91,7.23,7.23,0,0,0,.32,4.25h0l0,.1c.08.19.17.38.26.57a197.77,197.77,0,0,0,14.46,25.6c21.14,28.76,63.21,17.36,75.26,5.93,19.85-18.81-18.84-31.23-33.88-37.94A61.35,61.35,0,0,1,690.72,369.79Z"/><path class="cls-77" d="M665.28,331.87l-12-5.87a33.6,33.6,0,0,0-27.82-.76h0a33.6,33.6,0,0,0-17,16.08L595,368.57l2.22,1.77,14.15-9.9a7.21,7.21,0,0,1,10.75,3.06l1.79,4.17"/><path class="cls-90" d="M630.59,340.43h0a11.7,11.7,0,0,1-9-7.3h0a3.79,3.79,0,0,0-6.16-1.34,33.44,33.44,0,0,0-7,9.53L595,368.57l2.22,1.77,14.15-9.9a7.21,7.21,0,0,1,10.75,3.06l1.79,4.17,17.57-15.19-1.85-4.75A11.7,11.7,0,0,0,630.59,340.43Z"/><circle class="cls-81" cx="594.44" cy="372.33" r="5.3" transform="translate(-94.59 241.06) rotate(-21.27)"/><path class="cls-91" d="M651.85,351.82l-11,8.34,3.07,4.68a120.65,120.65,0,0,1,10.25-8Z"/><path class="cls-92" d="M686.14,357l-5.1,2.78a.88.88,0,0,0,.25,1.63l2.47.48.62-.81A9,9,0,0,0,686.14,357Z"/><path class="cls-81" d="M628.65,374.11l7-7a120.67,120.67,0,0,1,18.46-15.16l18.1-12.08a1.07,1.07,0,0,0,.32-1.45l-3.45-5.7a4.07,4.07,0,0,0-5.7-1.31l-16,10.34a91.42,91.42,0,0,0-19.84,17.32l-4.7,5.48a4,4,0,0,0-.1,5.14l3.4,4.28A1.7,1.7,0,0,0,628.65,374.11Z"/><path class="cls-80" d="M637.19,359.95h0a5,5,0,0,0-4.22,4.62l0,.61a5,5,0,0,0,1.78,4.13l2.69,2.24a5,5,0,0,0,5,.81l5.1-2-5.4-8.24A5,5,0,0,0,637.19,359.95Z"/><path class="cls-93" d="M638.13,362.66h0a2.84,2.84,0,0,0-2.4,2.64l0,.35a2.84,2.84,0,0,0,1,2.35l1.53,1.28a2.84,2.84,0,0,0,2.85.46l.37-.14a2.21,2.21,0,0,0,1-3.27l-1.58-2.41A2.84,2.84,0,0,0,638.13,362.66Z"/><path class="cls-88" d="M671.15,347.53a6,6,0,0,1-4.14,4.34,6.31,6.31,0,0,0-2.94,2,5.49,5.49,0,0,1-5.4,1.84l-.72-.15a3,3,0,0,1-2.05-4.32,14.72,14.72,0,0,1,12.26-8,3,3,0,0,1,3.14,3.61Z"/><path class="cls-77" d="M633.68,392h0a24.87,24.87,0,0,1,24.72,11h0a36.79,36.79,0,0,1,3,34.5l-1.72,4a26.81,26.81,0,0,0,14.58,35.34h0a24.33,24.33,0,0,1,12.31,11.09l1.4,2.63a24.33,24.33,0,0,1,0,22.87h0a24.33,24.33,0,0,1-29.23,11.65l-16.11-5.41A63.65,63.65,0,0,1,603.33,437l10.95-29.17A24.87,24.87,0,0,1,633.68,392Z"/><path class="cls-79" d="M689.74,478.48,671.27,458.3a108.56,108.56,0,0,0-32.39-24.22L630.45,430a20.47,20.47,0,0,0-13.8-1.51h0A20.47,20.47,0,0,0,602,442.05L599.74,449l-25.43-41.16,12.27-8.27a68.67,68.67,0,0,1,57.06-9.14l.26.07A66.89,66.89,0,0,1,692,445.95l4,29.64-3.07,1.26Z"/><path class="cls-94" d="M692.91,476.85l3.07-1.26-4-29.64a66.77,66.77,0,0,0-5.11-18.11,5.47,5.47,0,0,0-10.44,1.74h0a18.33,18.33,0,0,1-18.25,16.62h0v0a108.54,108.54,0,0,1,13.08,12.08l18.47,20.18Z"/><path class="cls-79" d="M796.85,538.59H781a7.2,7.2,0,0,1-7.2-7.2h0a10.92,10.92,0,0,1,10.92-10.92h12.13a7.2,7.2,0,0,1,7.2,7.2v3.72A7.2,7.2,0,0,1,796.85,538.59Z"/><path class="cls-81" d="M629.29,580.22h58.28a1.24,1.24,0,0,1,1.24,1.24v20.22a1.24,1.24,0,0,1-1.24,1.24H629.29a11.35,11.35,0,0,1-11.35-11.35v0A11.35,11.35,0,0,1,629.29,580.22Z"/><rect class="cls-81" x="743.41" y="710.2" width="30.95" height="15.78" rx="4.75" ry="4.75"/><path class="cls-81" d="M638.35,700.84h19.1a4.22,4.22,0,0,1,4.22,4.22v5.6a4.22,4.22,0,0,1-4.22,4.22h-19.1a4.22,4.22,0,0,1-4.22-4.22v-5.6A4.23,4.23,0,0,1,638.35,700.84Z" transform="translate(860.5 -227.89) rotate(55.27)"/><circle class="cls-77" cx="758.61" cy="231.95" r="3.93"/><circle class="cls-77" cx="853.88" cy="322.59" r="3.93"/><circle class="cls-77" cx="930.41" cy="376.08" r="3.93"/><circle class="cls-77" cx="813.78" cy="439.45" r="3.93"/><circle class="cls-79" cx="820.84" cy="379.35" r="4.1"/><circle class="cls-79" cx="809.27" cy="228.01" r="4.1"/><circle class="cls-79" cx="903.72" cy="316.43" r="4.1"/><circle class="cls-79" cx="885.48" cy="272.99" r="4.1"/><circle class="cls-95" cx="809.33" cy="284.8" r="4.46"/><circle class="cls-95" cx="867.09" cy="384.13" r="4.46"/><circle class="cls-95" cx="885.48" cy="443.38" r="4.46"/><circle class="cls-95" cx="712.27" cy="289.25" r="4.46"/><ellipse class="cls-96" cx="302.73" cy="733.37" rx="154" ry="10.76"/><path class="cls-97" d="M281.47,694v37.5c0,1,8.39,1.85,18.75,1.85s18.75-.83,18.75-1.85V694Z"/><path class="cls-98" d="M281.47,694v37.5c0,1,8.39,1.85,18.75,1.85s18.75-.83,18.75-1.85V694Z"/><path class="cls-99" d="M436.42,690.31h0c-48.78,11.27-218.59,11.27-267.38,0h0a17.63,17.63,0,0,1-11.44-25.75L295.21,400a8.6,8.6,0,0,1,15,0L447.86,664.56A17.63,17.63,0,0,1,436.42,690.31Z"/><path class="cls-100" d="M396.94,569.73h0a418.55,418.55,0,0,1-188.43,0h0a12.43,12.43,0,0,1-8.06-18.14l97-174.5a6.06,6.06,0,0,1,10.6,0l97,174.5A12.43,12.43,0,0,1,396.94,569.73Z"/><path class="cls-101" d="M371.57,498.07h0a305.83,305.83,0,0,1-137.68,0h0A9.08,9.08,0,0,1,228,484.82l70.86-127.51a4.43,4.43,0,0,1,7.74,0l70.86,127.51A9.08,9.08,0,0,1,371.57,498.07Z"/><path class="cls-102" d="M351.92,441.91h0a218.54,218.54,0,0,1-98.38,0h0a6.49,6.49,0,0,1-4.21-9.47L300,341.32a3.17,3.17,0,0,1,5.53,0l50.64,91.11A6.49,6.49,0,0,1,351.92,441.91Z"/><path class="cls-103" d="M337.76,399.31h0a155.64,155.64,0,0,1-70.07,0h0a4.62,4.62,0,0,1-3-6.75l36.06-64.89a2.25,2.25,0,0,1,3.94,0l36.06,64.89A4.62,4.62,0,0,1,337.76,399.31Z"/><circle class="cls-79" cx="188.53" cy="608.44" r="8.61"/><circle class="cls-95" cx="322.73" cy="580.47" r="8.61"/><circle class="cls-95" cx="348.34" cy="502.83" r="8.61"/><circle class="cls-95" cx="239.9" cy="652.36" r="8.61"/><circle class="cls-77" cx="248.51" cy="575.28" r="8.61"/><circle class="cls-79" cx="257.12" cy="502.83" r="8.61"/><circle class="cls-79" cx="386.1" cy="660.97" r="8.61"/><circle class="cls-95" cx="296.95" cy="399.13" r="8.61"/><circle class="cls-77" cx="327.58" cy="447.6" r="8.61"/><circle class="cls-77" cx="318.97" cy="648.15" r="8.61"/><circle class="cls-79" cx="416.9" cy="612.42" r="8.61"/><rect class="cls-77" x="524.05" y="703.82" width="42.06" height="35.16" rx="0.68" ry="0.68"/><path class="cls-104" d="M524.73,739a.68.68,0,0,1-.68-.68V704.5a.68.68,0,0,1,.68-.68l41.38,3.93"/><path class="cls-105" d="M525.64,696.4h38.9a3.27,3.27,0,0,1,3.27,3.27v7.41a.67.67,0,0,1-.67.67H523a.67.67,0,0,1-.67-.67v-7.41A3.27,3.27,0,0,1,525.64,696.4Z"/><rect class="cls-79" x="440.82" y="711.7" width="32.64" height="27.29" rx="0.52" ry="0.52"/><path class="cls-106" d="M441.34,739a.53.53,0,0,1-.53-.52V712.22a.53.53,0,0,1,.53-.52l32.11,3"/><path class="cls-107" d="M442,705.94h30.18a2.53,2.53,0,0,1,2.53,2.53v5.75a.52.52,0,0,1-.52.52H440a.52.52,0,0,1-.52-.52v-5.75A2.53,2.53,0,0,1,442,705.94Z"/><rect class="cls-95" x="472.54" y="693.93" width="53.89" height="45.06" rx="0.87" ry="0.87"/><path class="cls-108" d="M473.41,739a.87.87,0,0,1-.87-.87V694.8a.87.87,0,0,1,.87-.87l53,5"/><path class="cls-109" d="M474.57,684.42h49.84a4.18,4.18,0,0,1,4.18,4.18v9.5a.86.86,0,0,1-.86.86h-56.5a.86.86,0,0,1-.86-.86v-9.5A4.18,4.18,0,0,1,474.57,684.42Z"/><path class="cls-80" d="M975.75,494.68s-18.33,27.67,0,36.33,7.58,14.51,7.58,14.51l25.73-2.13s-7.65-4.37-4.65-10,15.49-17,15.25-26.33S986,481.53,981.2,485.44A15.56,15.56,0,0,0,975.75,494.68Z"/><path class="cls-110" d="M1014.55,519.73l-37.51-29a14.13,14.13,0,0,0-1.3,4s-.29.43-.75,1.21c-.55,6.57-.66,16.85,3.09,23,5.83,9.5,3.67,12.5-2.33,12.17a41.28,41.28,0,0,1,5.75,3.23h0s11.51-3.09,12.12,7.25a7,7,0,0,0,.92,3.09l14.51-1.2s-7.65-4.37-4.65-10C1006.1,530.15,1010.81,525.15,1014.55,519.73Z"/><path class="cls-111" d="M967.89,637.43c5.08-.33,6.86,73.58,115.33,98.41l2.87-3.23-53.42-29.77-3.44-61.91"/><path class="cls-112" d="M976,632.69S918.51,673,916.9,739h6.51l33.24-52.35s67.74-3.75,73.19-49.35"/><path class="cls-113" d="M913.08,482.43s7.93-12,10.52-7.43,4.65,12,4.65,12,3.77-7.75,5.07-5.49-5.39,17.35-4.48,20.33,6.61,42.48,58.17,40.71S987,567,987,567L945.3,550.82l-16.46-21.7"/><path class="cls-114" d="M987,542.55c-10.88.37-19.71-1.09-26.89-3.66a30.16,30.16,0,0,0-1.8,17L987,567S1038.58,540.78,987,542.55Z"/><path class="cls-95" d="M974.08,550.76s-10,11.27-6,36.63c3,18.77-1,36.2-3.28,44a4.93,4.93,0,0,0,3.09,6c10.47,3.7,37.78,11.33,65.29,2.35a4.25,4.25,0,0,0,2.94-4c.08-14.62-1.78-82.47-23.86-92.73C988.59,532,974.08,550.76,974.08,550.76Z"/><path class="cls-115" d="M1036.12,635.76c.05-9.85-.78-43.87-8.08-68.16-10.42-12.39-22.05-21.88-34.41-24.78l-25.74,34c1.11.09,24.63.54,25.74,22.88s-13.55,27.5-5.55,37.75a18.16,18.16,0,0,0,9.84,6.27,91.88,91.88,0,0,0,35.25-3.92A4.25,4.25,0,0,0,1036.12,635.76Z"/><path class="cls-111" d="M985.31,472.25c-9.7,2.68-14.87,13.64-10.2,22.56a13.48,13.48,0,0,0,4.14,4.86c7.33,5.17,1.33,16.17,3.5,15.5s5-8.83,7.67-5.83-.67,10.83-4.83,11.33,8.1,10.33,8.05,13.5,5-1.33,10.1,1.6c3.58,2.08,18.69-22.76,20.19-31.1s-30.9-28-30.28-31.83C993.91,471.11,989.91,471,985.31,472.25Z"/><path class="cls-79" d="M304.47,282.57l4.64,9.4a1.93,1.93,0,0,0,1.46,1.06l10.37,1.51a1.93,1.93,0,0,1,1.07,3.3l-7.5,7.31a1.93,1.93,0,0,0-.56,1.71l1.77,10.33a1.93,1.93,0,0,1-2.81,2l-9.27-4.88a1.93,1.93,0,0,0-1.8,0l-9.27,4.88a1.93,1.93,0,0,1-2.81-2l1.77-10.33a1.93,1.93,0,0,0-.56-1.71l-7.5-7.31a1.93,1.93,0,0,1,1.07-3.3L294.9,293a1.93,1.93,0,0,0,1.46-1.06l4.64-9.4A1.93,1.93,0,0,1,304.47,282.57Z"/><path class="cls-80" d="M912.33,499.94s-8.08-4.14-8.58-11.93,6.58-20.83,8.58-13.58,8.5,11.78,8.5,11.78,4.25-7.28,5.5-4.78-6.08,13-5.92,14.58"/><path class="cls-80" d="M986.34,541.84S927.08,564.68,920.41,496c0,0-7.1-2.67-9.33,3.93,0,0-4.67,80.23,68,77.07,0,0,27.33-3,22.67-21S986.34,541.84,986.34,541.84Z"/><path class="cls-95" d="M986.34,541.84s-14.43,5.56-29.85,2.94a45.16,45.16,0,0,0-2.72,29.37,75,75,0,0,0,25.3,2.86s27.33-3,22.67-21S986.34,541.84,986.34,541.84Z"/><polyline class="cls-95" points="916.9 738.98 914.75 747.35 902.08 753.53 928.75 753.53 923.41 738.98"/><polyline class="cls-95" points="1083.22 735.84 1090.13 745.01 1086.68 751.01 1080.08 753.53 1093.08 753.53 1102.41 738.98 1086.09 732.61"/><path class="cls-80" d="M1167.28,359.69s-2.1,30.17,8.77,36.05,28.39-13,28.39-13,9-25,2.37-34.53S1169.9,334.8,1167.28,359.69Z"/><path class="cls-80" d="M1183.16,396.62s7.67-1.53,6.67,6.81a33.77,33.77,0,0,1-5.33,14.33l26-4.67-6.65-30.64"/><path class="cls-111" d="M1165.6,351.43s-6.63,15.67,14.85,27.79,10.13,16,16.11,24.57c4.09,5.86,22.64,1.24,28.46-13.57,11.62-29.54-4.56-50.65-26-53.83S1167.1,345.81,1165.6,351.43Z"/><path class="cls-80" d="M1216,564.18l-15.93,71.5,10,100.16h-7.35s-32.68-67.16-21.42-121.66"/><path class="cls-80" d="M1202.73,735.84s-32.68-67.16-21.42-121.66"/><path class="cls-116" d="M1181.63,668.57a53.07,53.07,0,0,0,10.7,22.1c7.79,9.74,15.57,37.81,17.52,45.16h.23l-7.91-79.26-20.56,11.84Z"/><path class="cls-117" d="M1183.6,563.12l-15.92,71.48,4.7,100.13h-7.22s-27.49-67.14-16.23-121.62"/><path class="cls-118" d="M1219.14,418.5s13.79,23.18-3.14,62.18-78.59,45.74-78.59,45.74l-4-32.74"/><path class="cls-119" d="M1167.12,423.34s12.85-8.67,34.41-11.67,23.23,17.67,17.29,34c-7.34,20.23-25.23,25.55-8.31,69.46,11.89,30.88-.41,113,7.49,137.18s-116.9,19.82-116.9-.18-6-114,12-148.53,32.73-38.82,35.05-54C1150.58,433.55,1167.12,423.34,1167.12,423.34Z"/><path class="cls-120" d="M1160.95,469.73c-17.37,22.45,29.63,13.9,11.13,47.93-18.11,33.31-91.51,148.42-1.65,151.2,27.16-.38,51.15-5.47,47.55-16.5-7.9-24.19,4.41-106.3-7.49-137.18-16.92-43.91,1-49.23,8.31-69.46,2.26-6.24,3.42-13.1,2.79-19,0,0,1.15,19.34-6.68,17.17s-1.5-8.73-7.13-17.17l-59.65,22.93S1178.31,447.27,1160.95,469.73Z"/><path class="cls-121" d="M1165.16,734.72s.47,6.34-4.53,9.58-14.84,6.2-14.42,8.1,27.41,1.15,27.41,1.15a74.24,74.24,0,0,0-1.25-18.83"/><rect class="cls-97" x="1513.89" y="563.36" width="137.38" height="150.44"/><rect class="cls-122" x="1513.89" y="563.36" width="137.38" height="150.44"/><rect class="cls-97" x="1513.89" y="563.36" width="54" height="150.44"/><path class="cls-97" d="M1506.54,539.86H1634a17.3,17.3,0,0,1,17.3,17.3v10.11a0,0,0,0,1,0,0H1506.54a5.82,5.82,0,0,1-5.82-5.82V545.68A5.82,5.82,0,0,1,1506.54,539.86Z"/><path class="cls-123" d="M1506.54,539.86H1634a17.3,17.3,0,0,1,17.3,17.3v10.11a0,0,0,0,1,0,0H1506.54a5.82,5.82,0,0,1-5.82-5.82V545.68A5.82,5.82,0,0,1,1506.54,539.86Z"/><path class="cls-97" d="M1552.72,561.45V545.68a5.82,5.82,0,0,1,5.82-5.82h-52a5.82,5.82,0,0,0-5.82,5.82v15.77a5.82,5.82,0,0,0,5.82,5.82h52A5.82,5.82,0,0,1,1552.72,561.45Z"/><polygon class="cls-97" points="1522.62 754.82 1513.89 754.82 1513.89 713.8 1534.63 713.8 1522.62 754.82"/><polygon class="cls-124" points="1534.63 713.8 1513.89 713.8 1513.89 730.19 1529.84 730.19 1534.63 713.8"/><polygon class="cls-97" points="1555.88 754.82 1547.15 754.82 1547.15 713.8 1567.89 713.8 1555.88 754.82"/><polygon class="cls-125" points="1567.89 713.8 1547.15 713.8 1547.15 730.19 1563.09 730.19 1567.89 713.8"/><polygon class="cls-126" points="1642.53 754.82 1651.27 754.82 1651.27 713.8 1630.52 713.8 1642.53 754.82"/><polygon class="cls-127" points="1635.32 730.19 1651.27 730.19 1651.27 713.8 1630.52 713.8 1635.32 730.19"/><polygon class="cls-126" points="1579.9 754.82 1588.63 754.82 1588.63 713.8 1567.89 713.8 1579.9 754.82"/><polygon class="cls-128" points="1572.68 730.19 1588.63 730.19 1588.63 713.8 1567.89 713.8 1572.68 730.19"/><path class="cls-129" d="M1512.57,581h34.22a0,0,0,0,1,0,0V632.5a0,0,0,0,1,0,0h-34.22a4,4,0,0,1-4-4V585.06A4,4,0,0,1,1512.57,581Z"/><ellipse class="cls-130" cx="1527.66" cy="606.76" rx="3.5" ry="4.98"/><rect class="cls-129" x="1546.79" y="581.02" width="10.73" height="51.48"/><rect class="cls-131" x="1546.79" y="581.02" width="10.73" height="51.48"/><path class="cls-129" d="M1512.57,643h34.22a0,0,0,0,1,0,0V694.5a0,0,0,0,1,0,0h-34.22a4,4,0,0,1-4-4V647.06A4,4,0,0,1,1512.57,643Z"/><ellipse class="cls-132" cx="1527.66" cy="668.76" rx="3.5" ry="4.98"/><rect class="cls-129" x="1546.79" y="643.02" width="10.73" height="51.48"/><rect class="cls-133" x="1546.79" y="643.02" width="10.73" height="51.48"/><path class="cls-134" d="M1567.54,347.09l-3.35,7.38a9.79,9.79,0,0,0,.17,8.46l2,4a7.31,7.31,0,0,1-1.39,8.49l-4.09,4a25.42,25.42,0,0,0-7.33,21.43h0a11.46,11.46,0,0,0,6.62,8.92h0a10.77,10.77,0,0,1,5.35,14.26l-2.05,4.51a41.42,41.42,0,0,0-3.65,15h0a37.91,37.91,0,0,0,5.24,21.3l7.68,13L1586.5,484l14.33-25.93a46.91,46.91,0,0,0-.71-46.62h0a17.42,17.42,0,0,1,2.12-20.64l2-2.18a24.8,24.8,0,0,0,6.46-15.47l.19-3.78a10.37,10.37,0,0,0-8.08-10.65l-6.36-1.43a5.62,5.62,0,0,1-4.27-6.61l1.71-8.35a22,22,0,0,0-9.46-22.76l-.18-.12a11.68,11.68,0,0,0-17,4.93h0a18,18,0,0,0-1,12.19l1.67,6.14A6.39,6.39,0,0,1,1567.54,347.09Z"/><path class="cls-135" d="M1600.14,411.53a17.45,17.45,0,0,1,2.1-20.67l2-2.18a24.81,24.81,0,0,0,6.46-15.47l.19-3.78a10.37,10.37,0,0,0-8.08-10.65l-6.36-1.43a5.62,5.62,0,0,1-4.27-6.61l1.71-8.35a22,22,0,0,0-9.46-22.76l-.18-.12-.08,0a4.7,4.7,0,0,0-7.22,4.61l3,21.16a27.68,27.68,0,0,1,.16,6.5l-1.07,11.55a11.08,11.08,0,0,0,3.14,8.81h0a13.19,13.19,0,0,1,1.85,16.17h0a39,39,0,0,0-4,32h0a24.31,24.31,0,0,1,.84,10.7l-3.47,23.9,1.09,25.57,8,3.63,14.33-25.93A46.91,46.91,0,0,0,1600.14,411.53Z"/><path class="cls-136" d="M1580.33,344.67a56.08,56.08,0,0,1,.84,9.17,89.16,89.16,0,0,1-1,9.15,77.58,77.58,0,0,0-1,9c-.05,3,.71,5.82,1.3,8.85l1.83,9,1.58,7.75,2.37-4.23c1.19-2.07,2.29-4.21,3.6-6.24a48.83,48.83,0,0,1,4.34-5.76l4.71-5.42-4.41,5.66a48.24,48.24,0,0,0-4,5.92c-1.17,2.05-2.16,4.24-3.23,6.38l-2.93,6a48.11,48.11,0,0,1,1.22,8.15,36.13,36.13,0,0,1-.87,9.36l-2.12,8.91-.59,2.46c.84-1.47,1.62-3,2.55-4.42a36,36,0,0,1,3.2-4.25l3.47-4-3.25,4.17a35.57,35.57,0,0,0-2.93,4.36c-.87,1.51-1.59,3.12-2.38,4.7l-1.54,3.14-.65,2.74a85.25,85.25,0,0,0-1.78,8.87,64.15,64.15,0,0,0-.59,9c0,3,.19,6.09.27,9.13.12,6.1.31,12.2.37,18.31-.55-6.08-1-12.17-1.45-18.25-.2-3.05-.43-6.07-.58-9.15a65.71,65.71,0,0,1,.3-9.25c.08-.79.22-1.58.33-2.38l-.82-4.17c-.36-1.73-.64-3.47-1.08-5.16a35.54,35.54,0,0,0-1.7-5l-2.06-4.87,2.32,4.76a36,36,0,0,1,2,4.93c.54,1.7.92,3.43,1.37,5.13l.41,1.62c.25-1.34.53-2.68.85-4l2-8.92,2-8.91a33.62,33.62,0,0,0,.6-4l-4.72-4.74c-1.71-1.68-3.34-3.43-5.11-5a48.23,48.23,0,0,0-5.67-4.32l-6-3.94,6.2,3.61a48.82,48.82,0,0,1,6,4.06c1.9,1.51,3.62,3.17,5.41,4.75l4,3.65c0-1,0-1.94,0-2.91a53.89,53.89,0,0,0-1.3-8.88l-1.73-9-1.73-9c-.28-1.51-.59-3-.85-4.53a26.59,26.59,0,0,1-.28-4.72,78.1,78.1,0,0,1,1.31-9.16c.48-3,1.16-6,1.33-9a55.3,55.3,0,0,0-.34-9.07l-.7-9.13Z"/><path class="cls-137" d="M1617.19,431.18v4.64a5.61,5.61,0,0,1-2.09,4.37l-2,1.6a4.18,4.18,0,0,0-1.29,4.75l1.17,3.07a14.56,14.56,0,0,1-1.26,12.91h0a6.56,6.56,0,0,1-5.56,3.08h0a6.17,6.17,0,0,0-6.17,6.17v2.84a23.72,23.72,0,0,1-1.64,8.66h0a21.71,21.71,0,0,1-7.77,9.86l-7.08,4.95h-8.65l-1.33-16.91A26.86,26.86,0,0,1,1584.95,457h0a10,10,0,0,0,3.78-11.26l-.52-1.61a14.2,14.2,0,0,1,.29-9.59l.79-2a5.94,5.94,0,0,1,6.73-3.64l3.66.76a3.22,3.22,0,0,0,3.79-2.43l1.09-4.76a12.58,12.58,0,0,1,10.32-9.62l.12,0a6.69,6.69,0,0,1,7.72,6.61h0a10.33,10.33,0,0,1-2.37,6.59l-2.32,2.81A3.66,3.66,0,0,0,1617.19,431.18Z"/><path class="cls-138" d="M1584.93,457.06a10,10,0,0,0,3.8-11.28l-.52-1.61a14.2,14.2,0,0,1,.29-9.59l.79-2a5.94,5.94,0,0,1,6.73-3.64l3.66.76a3.22,3.22,0,0,0,3.79-2.43l1.09-4.76a12.58,12.58,0,0,1,10.32-9.63l.12,0h.05a2.69,2.69,0,0,1,2.67,4.11l-6.6,10.31a15.86,15.86,0,0,0-1.62,3.35l-2.17,6.27a6.35,6.35,0,0,1-3.72,3.85h0a7.55,7.55,0,0,0-4.79,8h0a22.34,22.34,0,0,1-5.48,17.62h0a13.92,13.92,0,0,0-3,5.38L1586.52,485l-6.63,13.07h-5l-1.33-16.91A26.86,26.86,0,0,1,1584.93,457.06Z"/><path class="cls-139" d="M1611.09,426.89a32.11,32.11,0,0,0-2.61,4.58,51.09,51.09,0,0,0-1.63,5,44.41,44.41,0,0,1-1.61,4.91,24.35,24.35,0,0,1-2.77,4.3l-3.08,4.24-2.66,3.66-.23-2.76c-.13-1.36-.2-2.73-.4-4.11a28,28,0,0,0-.9-4l-1.17-3.94,1,4a27.62,27.62,0,0,1,.67,4c.13,1.35.12,2.72.17,4.09l.11,3.8a27.55,27.55,0,0,0-2.57,4,20.69,20.69,0,0,0-1.76,5.09l-1,5.15-.28,1.42c-.09-1-.14-1.94-.28-2.91a20.59,20.59,0,0,0-.66-3l-.86-2.9.71,2.95a20.37,20.37,0,0,1,.5,3c.09,1,.09,2,.13,3l.06,2-.31,1.58a48.81,48.81,0,0,1-1.18,5,36.73,36.73,0,0,1-1.83,4.84c-.74,1.56-1.54,3.13-2.3,4.7-1.51,3.15-3.05,6.29-4.53,9.46,1.73-3,3.38-6.12,5.08-9.17.83-1.54,1.66-3.06,2.47-4.63a37.63,37.63,0,0,0,2-4.89c.15-.43.26-.88.39-1.32l1.41-2c.6-.82,1.15-1.66,1.79-2.43a20.35,20.35,0,0,1,2.06-2.19l2.23-2.05-2.33,1.93a20.61,20.61,0,0,0-2.2,2.1c-.69.76-1.29,1.57-1.93,2.35l-.6.75c.19-.76.36-1.52.5-2.28l1.06-5.13,1.06-5.12a19.24,19.24,0,0,1,.63-2.21l3.58-1.35c1.29-.47,2.55-1,3.85-1.4a27.61,27.61,0,0,1,4-.91l4.06-.63-4.09.42a28,28,0,0,0-4.07.71c-1.35.34-2.64.79-3.95,1.2l-3,.94c.21-.51.44-1,.69-1.52a30.86,30.86,0,0,1,2.78-4.32l3-4.28,3-4.28c.5-.72,1-1.4,1.51-2.16a15.22,15.22,0,0,0,1.26-2.4,44.72,44.72,0,0,0,1.49-5.09c.47-1.69.82-3.4,1.43-5a31.67,31.67,0,0,1,2.33-4.65l2.53-4.59Z"/><path class="cls-140" d="M1534.59,413.5l-.6,5.68a6.9,6.9,0,0,0,2,5.61l2.23,2.21a5.15,5.15,0,0,1,1,6l-1.83,3.61a17.91,17.91,0,0,0-.12,16h0a8.07,8.07,0,0,0,6.41,4.49h0a7.58,7.58,0,0,1,6.75,8.34l-.36,3.47a29.17,29.17,0,0,0,.89,10.81h0a26.71,26.71,0,0,0,8.24,13.06l8,7,10.58,1.11,3.8-20.52a33,33,0,0,0-10.86-31h0a12.27,12.27,0,0,1-3.18-14.26l.85-1.9a17.47,17.47,0,0,0,.87-11.77l-.71-2.57a7.3,7.3,0,0,0-7.77-5.31l-4.57.46a4,4,0,0,1-4.33-3.47l-.72-6a15.47,15.47,0,0,0-11.39-13.1l-.14,0a8.22,8.22,0,0,0-10.29,7.09h0a12.71,12.71,0,0,0,2.06,8.36l2.48,3.73A4.5,4.5,0,0,1,1534.59,413.5Z"/><path class="cls-141" d="M1570.74,449.29a12.29,12.29,0,0,1-3.2-14.28l.85-1.9a17.47,17.47,0,0,0,.87-11.77l-.71-2.57a7.3,7.3,0,0,0-7.77-5.31l-4.57.46a4,4,0,0,1-4.33-3.47l-.72-6a15.47,15.47,0,0,0-11.39-13.1l-.14,0-.06,0a3.31,3.31,0,0,0-3.8,4.69l6.74,13.46a19.51,19.51,0,0,1,1.56,4.31l1.85,8a7.81,7.81,0,0,0,4.06,5.19h0a9.29,9.29,0,0,1,4.83,10.39h0a27.48,27.48,0,0,0,4.44,22.27h0a17.12,17.12,0,0,1,2.95,7l3,16.74,6.43,16.85,6.15.65,3.8-20.52A33,33,0,0,0,1570.74,449.29Z"/><path class="cls-142" d="M1542.6,409a39.52,39.52,0,0,1,2.61,5.94,62.84,62.84,0,0,1,1.35,6.35,54.64,54.64,0,0,0,1.34,6.22,30,30,0,0,0,2.84,5.62l3.22,5.58,2.78,4.82.64-3.35c.33-1.65.59-3.32,1-5a34.4,34.4,0,0,1,1.62-4.82l1.94-4.67-1.69,4.77a34,34,0,0,0-1.34,4.84c-.33,1.63-.5,3.31-.74,5l-.63,4.63a33.89,33.89,0,0,1,2.63,5.17,25.44,25.44,0,0,1,1.51,6.45l.57,6.43.16,1.77c.23-1.17.42-2.35.72-3.52a25.35,25.35,0,0,1,1.19-3.55l1.43-3.44-1.24,3.51a25,25,0,0,0-1,3.57c-.24,1.2-.37,2.44-.54,3.67l-.33,2.44.17,2a60.07,60.07,0,0,0,.79,6.32,45.19,45.19,0,0,0,1.61,6.16c.7,2,1.48,4,2.21,6,1.44,4.05,2.93,8.08,4.32,12.15-1.72-3.94-3.36-7.92-5-11.87-.81-2-1.64-4-2.43-6a46.3,46.3,0,0,1-1.86-6.25c-.13-.55-.21-1.11-.31-1.66l-1.48-2.6c-.62-1.08-1.2-2.18-1.87-3.21a25,25,0,0,0-2.24-2.94l-2.46-2.8,2.61,2.66a25.34,25.34,0,0,1,2.43,2.85c.74,1,1.38,2.09,2.06,3.12l.63,1c-.13-1-.24-1.91-.32-2.85l-.63-6.41-.64-6.4a23.66,23.66,0,0,0-.48-2.79l-4.21-2.11c-1.51-.74-3-1.55-4.53-2.2a34,34,0,0,0-4.75-1.63l-4.89-1.3,5,1a34.39,34.39,0,0,1,4.89,1.39c1.6.58,3.13,1.31,4.68,2l3.52,1.53c-.19-.66-.4-1.31-.65-1.95a38,38,0,0,0-2.84-5.64l-3.16-5.62-3.16-5.62c-.52-.95-1.06-1.85-1.57-2.84a18.74,18.74,0,0,1-1.24-3.09,55,55,0,0,1-1.17-6.42c-.36-2.12-.56-4.27-1.11-6.3a38.94,38.94,0,0,0-2.25-6l-2.5-5.94Z"/><path class="cls-143" d="M1531.68,501.17c0,11.83,4.28,23,8.13,32.83a7.85,7.85,0,0,0,7.31,5h57.75a7.85,7.85,0,0,0,7.31-5c3.85-9.85,8.13-21,8.13-32.83a115.12,115.12,0,0,0-1.25-17,7.84,7.84,0,0,0-7.76-6.66h-70.61a7.84,7.84,0,0,0-7.76,6.66A115.12,115.12,0,0,0,1531.68,501.17Z"/><rect class="cls-144" x="1062.59" y="357.23" width="38.03" height="27.32" rx="1" ry="1"/><rect class="cls-145" x="1062.59" y="357.23" width="38.03" height="27.32" rx="1" ry="1"/><path class="cls-146" d="M1042.18,359.6c-2.54,0-4.6,5.06-4.6,11.29s2.06,11.29,4.6,11.29H1048V359.6Z"/><ellipse class="cls-111" cx="1048.01" cy="370.89" rx="4.6" ry="11.29"/><path class="cls-146" d="M1051,361.92c-2,0-3.66,4-3.66,9s1.64,9,3.66,9h17.71V361.92Z"/><path class="cls-144" d="M1069.67,383.55V358.23a1,1,0,0,1,1-1h-7.08a1,1,0,0,0-1,1v25.32a1,1,0,0,0,1,1h7.08A1,1,0,0,1,1069.67,383.55Z"/><path class="cls-80" d="M1061.45,393s-9.31-10-8.84-13.54,6.47-12,7-14.25,2.5-12.13,5.25-5.94,2.31,17.5,4.84,18.35c2.91,1,5.53,2.5,3.64,6s-2.23,3.63-1.73,5.63"/><path class="cls-119" d="M1193.71,413.63a6.07,6.07,0,0,0-3,.26c-7.5,2.49-48.81,15.28-74.64,3.87-19.55-8.63-36.35-22.34-45-30.09-5.06-4.55-12.51,1.85-8.74,7.51l.2.3c6.84,9.92,31.62,53.7,77.56,55.2s71.25-5.67,69.1-18.67C1207.31,420.4,1199.08,414.6,1193.71,413.63Z"/><circle class="cls-144" cx="1096.47" cy="363.04" r="1.39"/><path class="cls-119" d="M1210,735.84h-7.22s.47,6.34-4.53,9.59-14.84,6.2-14.42,8.1,27.42,1.15,27.42,1.15A74.27,74.27,0,0,0,1210,735.84Z"/></g></g></svg>